<svg width="60" height="60" viewBox="0 0 60 60" fill="none" xmlns="http://www.w3.org/2000/svg">
<path d="M47.3457 12.9619H51.996C52.842 12.9621 53.9971 13.2708 54.7275 14.3271C55.7088 15.7468 56.0329 17.6089 55.9482 19.3057C55.8621 21.0298 55.3421 22.8848 54.2929 24.3799C53.2083 25.9254 50.8834 28.3513 46.2334 28.5273C44.2318 33.8371 39.7041 37.9069 34.1152 39.2725V44.8457L37.8076 44.8467C39.1882 44.8468 40.3076 45.966 40.3076 47.3467C40.3073 48.7271 39.188 49.8456 37.8076 49.8457H23.8076C22.4269 49.8457 21.3076 48.7264 21.3076 47.3457C21.3078 45.9652 22.427 44.8457 23.8076 44.8457H27.5V39.5898C21.1584 38.6824 15.922 34.352 13.7265 28.5273C9.07722 28.3509 6.75238 25.9252 5.66792 24.3799C4.61879 22.8848 4.09879 21.0298 4.01265 19.3057C3.92796 17.609 4.25215 15.7467 5.23335 14.3271C5.96369 13.2709 7.11883 12.9622 7.9648 12.9619H12.6152V10H47.3457V12.9619ZM8.32905 16.9619C8.11063 17.4629 7.96277 18.2051 8.00777 19.1064C8.06398 20.2307 8.4071 21.3193 8.94234 22.082C9.45298 22.8097 10.4833 24.0202 12.7314 24.4111C12.6556 23.7526 12.6152 23.0831 12.6152 22.4043V16.9619H8.32905ZM47.3457 22.4043C47.3456 23.0831 47.3043 23.7526 47.2285 24.4111C49.4772 24.0205 50.5077 22.8098 51.0185 22.082C51.5538 21.3193 51.8969 20.2308 51.9531 19.1064C51.9981 18.205 51.8502 17.4629 51.6318 16.9619H47.3457V22.4043Z" fill="#3A3ADB"/>
<path d="M30.1781 15.244C30.3761 14.6345 31.2384 14.6345 31.4364 15.244L32.8866 19.7072C32.9751 19.9798 33.2291 20.1643 33.5157 20.1643H38.2086C38.8495 20.1643 39.1159 20.9843 38.5975 21.361L34.8008 24.1194C34.569 24.2879 34.472 24.5865 34.5605 24.8591L36.0107 29.3223C36.2087 29.9318 35.5112 30.4386 34.9927 30.0619L31.1961 27.3035C30.9642 27.135 30.6503 27.135 30.4184 27.3035L26.6218 30.0619C26.1033 30.4386 25.4057 29.9318 25.6038 29.3223L27.0539 24.8591C27.1425 24.5865 27.0455 24.2879 26.8136 24.1194L23.017 21.361C22.4985 20.9843 22.765 20.1643 23.4058 20.1643H28.0987C28.3853 20.1643 28.6393 19.9798 28.7279 19.7072L30.1781 15.244Z" fill="#72EDF2"/>
</svg>
