<svg width="60" height="60" viewBox="0 0 60 60" fill="none" xmlns="http://www.w3.org/2000/svg">
<circle cx="30.5" cy="29.5" r="23.5" stroke="#72EDF2" stroke-width="6"/>
<path d="M39.5186 18.5127C39.8264 18.6635 40.3805 19.689 40.1343 20.7749C39.8264 22.1322 38.903 24.8468 38.903 25.2993C38.903 25.7517 38.903 27.109 39.5186 27.5615" stroke="#3A3ADB" stroke-width="2.58537" stroke-linecap="round"/>
<path d="M44.6884 18.5127C44.9962 18.6635 45.5503 19.689 45.3041 20.7749C44.9962 22.1322 44.0728 24.8468 44.0728 25.2993C44.0728 25.7517 44.0728 27.109 44.6884 27.5615" stroke="#3A3ADB" stroke-width="2.58537" stroke-linecap="round"/>
<path d="M13 31.2927C13 30.5788 13.5788 30 14.2927 30H21V37H14.2927C13.5788 37 13 36.4212 13 35.7073V31.2927Z" fill="#3A3ADB"/>
<rect x="14.4414" y="9.79688" width="50.0791" height="6.46341" rx="3.23171" transform="rotate(45 14.4414 9.79688)" fill="#72EDF2"/>
<path d="M30.847 37.0715H22.097V30.1467H23.0912L30.847 37.0715ZM45.3666 30.1467C46.0804 30.1469 46.6586 30.7259 46.6586 31.4397V35.7795C46.6584 36.4933 46.0803 37.0714 45.3666 37.0715H44.0629L36.307 30.1467H45.3666Z" fill="#3A3ADB"/>
</svg>
