<svg width="60" height="60" viewBox="0 0 60 60" fill="none" xmlns="http://www.w3.org/2000/svg">
<path d="M17.6593 24.2568C17.2612 24.5266 17.0001 24.983 17.0001 25.5C17.0001 26.3284 17.6718 26.9999 18.5001 27H20.4025L25.4025 32H18.5011C17.6728 32.0001 17.0011 32.6716 17.0011 33.5C17.0011 34.3284 17.6728 34.9999 18.5011 35H28.4025L41.0792 47.6768C41.2162 47.8137 41.3611 47.9392 41.5099 48.0557C38.2506 50.108 34.3929 51.2968 30.257 51.2969C26.8092 51.2968 23.5545 50.4712 20.6788 49.0078L10.2521 50.3125C8.67244 50.5099 7.5067 48.8725 8.21008 47.4443L11.715 40.3262C10.0541 37.3067 9.10852 33.838 9.10852 30.1484C9.10855 26.0258 10.289 22.1792 12.3292 18.9268L17.6593 24.2568ZM30.257 9C41.9369 9.00008 51.4063 18.4685 51.4064 30.1484C51.4064 34.3216 50.1961 38.2117 48.1095 41.4893C47.989 41.3338 47.8587 41.1828 47.7159 41.04L41.6759 35H42.5011C43.3294 34.9999 44.0011 34.3284 44.0011 33.5C44.0011 32.6716 43.3294 32.0001 42.5011 32H38.6759L33.6759 27H42.5001C43.3285 26.9999 44.0001 26.3284 44.0001 25.5C44.0001 24.6716 43.3285 24.0001 42.5001 24H30.6759L18.9503 12.2744C22.2207 10.2014 26.0984 9.00009 30.257 9Z" fill="#3A3ADB"/>
<rect x="12.5698" y="8.0127" width="57.0578" height="6.46341" rx="3.23171" transform="rotate(45 12.5698 8.0127)" fill="#72EDF2"/>
</svg>
