<svg width="60" height="60" viewBox="0 0 60 60" fill="none" xmlns="http://www.w3.org/2000/svg">
<path d="M25.2959 6C28.431 6.00023 30.9916 8.45152 31.1699 11.542C32.1542 10.8019 33.3788 10.3643 34.7051 10.3643C37.9558 10.3644 40.5907 12.9992 40.5908 16.25V21.7031C41.3555 21.3398 42.2113 21.1367 43.1143 21.1367C46.0764 21.1369 48.5266 23.3247 48.9385 26.1729L49 26.1816V36.2725C49 40.477 42.9545 53.0908 29.5 53.0908C16.0455 53.0908 11 41.3179 11 36.2725V19.6133C11.0001 16.3624 13.6358 13.7275 16.8867 13.7275C17.7895 13.7276 18.6446 13.9307 19.4092 14.2939V11.8867C19.4092 8.63577 22.0449 6 25.2959 6Z" fill="#3A3ADB"/>
<path d="M32.8767 27.8635C37.1653 27.8637 37.9232 32.0677 37.9216 34.4036C37.9177 39.8907 32.5015 42.4805 29.2839 44.3225L28.6716 44.6819C25.5883 42.8132 19.7566 40.247 19.4216 34.4036C19.2877 32.0677 20.1778 27.8636 24.4665 27.8635C26.9884 27.8635 27.8307 29.4205 28.6716 30.6663L28.9909 30.1887C29.7498 29.056 30.6699 27.8635 32.8767 27.8635Z" fill="#72EDF2"/>
</svg>
