<svg width="60" height="60" viewBox="0 0 60 60" fill="none" xmlns="http://www.w3.org/2000/svg">
<circle cx="39.5761" cy="8.58023" r="5.58023" fill="#2B2C31"/>
<rect x="50.4761" y="55.5669" width="46.0945" height="6.91962" rx="3.45981" transform="rotate(-165 50.4761 55.5669)" fill="#5E6068" stroke="#5E6068" stroke-width="3.1887"/>
<path d="M20.3134 14.3642C20.7692 12.6634 22.5177 11.6538 24.2186 12.1093L53.2968 19.9013C54.9977 20.3572 56.0074 22.1056 55.5516 23.8066C55.0958 25.5074 53.3472 26.517 51.6464 26.0615L37.1874 22.1865L34.077 27.3945L41.8759 29.4843C43.4781 29.9137 44.4657 31.4896 44.1942 33.0927C44.2141 33.6836 44.0727 34.2867 43.747 34.832L37.7587 44.8574C36.8554 46.3689 34.8983 46.8619 33.3866 45.959C31.8748 45.0559 31.3812 43.0987 32.2841 41.5869L36.4393 34.6298L30.6776 33.0859L25.9237 41.0449C25.0206 42.5567 23.0625 43.0504 21.5507 42.1474C20.0388 41.2444 19.5452 39.2862 20.4481 37.7744L30.7831 20.4707L22.5682 18.2695C20.8673 17.8136 19.8576 16.0652 20.3134 14.3642Z" fill="#2B2C31"/>
</svg>
