<svg width="60" height="60" viewBox="0 0 60 60" fill="none" xmlns="http://www.w3.org/2000/svg">
<path d="M19.9617 22.767C23.8629 18.9403 30.9157 19.8074 35.7156 24.7045C40.5155 29.6019 41.245 36.6755 37.3445 40.5033C36.3628 41.4665 35.1805 42.131 33.8855 42.5091C32.9184 42.7916 32.2064 43.7034 32.2419 44.7103C32.3459 47.6545 31.4494 50.361 29.4773 52.2963C24.926 56.7618 16.3786 55.4256 10.3855 49.3109C4.39263 43.1963 3.22337 34.6194 7.77417 30.1537C9.80816 28.1581 12.6407 27.3222 15.6863 27.5531C16.69 27.6292 17.6276 26.953 17.95 25.9994C18.3603 24.7857 19.028 23.683 19.9617 22.767ZM13.447 39.9916C13.0173 39.5621 12.321 39.562 11.8914 39.9916C11.4618 40.4212 11.4619 41.1176 11.8914 41.5472L17.8835 47.5404C18.3132 47.9701 19.0105 47.97 19.4402 47.5404C19.8699 47.1107 19.8699 46.4134 19.4402 45.9838L13.447 39.9916Z" fill="#2B2C31"/>
<rect x="45.7788" y="6.21847" width="12.7311" height="1.72249" rx="0.861244" transform="rotate(45 45.7788 6.21847)" fill="#5E6068" stroke="#5E6068" stroke-width="1.72249"/>
<rect x="41.0273" y="14.6957" width="7.07715" height="1.10023" rx="0.550114" transform="rotate(45 41.0273 14.6957)" fill="#5E6068" stroke="#5E6068" stroke-width="1.10023"/>
<rect x="33.5552" y="22.7782" width="6.07718" height="1.10023" rx="0.550114" transform="rotate(45 33.5552 22.7782)" fill="#5E6068" stroke="#5E6068" stroke-width="1.10023"/>
<rect x="1.06686" width="30.5519" height="1.48245" rx="0.741226" transform="matrix(0.719658 -0.694329 0.719658 0.694329 24.2991 30.9378)" fill="#5E6068" stroke="#5E6068" stroke-width="1.48245"/>
<rect x="1.06686" width="30.5519" height="1.48245" rx="0.741226" transform="matrix(0.719658 -0.694329 0.719658 0.694329 28.263 34.6829)" fill="#5E6068" stroke="#5E6068" stroke-width="1.48245"/>
<circle cx="24.8056" cy="35.0214" r="4.30622" stroke="#5E6068" stroke-width="3.44498"/>
</svg>
