<svg width="60" height="60" viewBox="0 0 60 60" fill="none" xmlns="http://www.w3.org/2000/svg">
<path d="M25.2571 6C36.9371 6 46.4055 15.4685 46.4055 27.1484C46.4055 38.8285 36.9372 48.2969 25.2571 48.2969C21.809 48.2968 18.5539 47.4715 15.678 46.0078L5.25222 47.3125C3.67262 47.51 2.50615 45.8725 3.20925 44.4443L6.71511 37.3262C5.05423 34.3067 4.10867 30.838 4.10867 27.1484C4.10875 15.4685 13.5772 6.0001 25.2571 6ZM15.5012 29C14.6728 29 14.0012 29.6716 14.0012 30.5C14.0012 31.3284 14.6728 32 15.5012 32H35.5012C36.3297 32 37.0012 31.3284 37.0012 30.5C37.0012 29.6716 36.3297 29 35.5012 29H15.5012ZM15.5012 21C14.6728 21 14.0012 21.6716 14.0012 22.5C14.0012 23.3284 14.6728 24 15.5012 24H35.5012C36.3297 24 37.0012 23.3284 37.0012 22.5C37.0012 21.6716 36.3297 21 35.5012 21H15.5012Z" fill="#2B2C31"/>
<path d="M41.5845 25C33.5297 25.0002 26.9997 31.53 26.9996 39.585C26.9996 47.64 33.5296 54.1697 41.5845 54.1699C43.9621 54.1699 46.2069 53.6009 48.19 52.5918L54.2398 53.3486C55.8193 53.5462 56.9857 51.9085 56.2828 50.4805L54.3736 46.6025C55.5185 44.5205 56.1705 42.1288 56.1705 39.585C56.1704 31.5299 49.6396 25 41.5845 25Z" fill="#5E6068"/>
</svg>
