<svg width="60" height="60" viewBox="0 0 60 60" fill="none" xmlns="http://www.w3.org/2000/svg">
<g clip-path="url(#clip0_615_3508)">
<rect x="28.6083" y="6.02332" width="8.65583" height="3.50168" rx="1.75084" transform="rotate(86.6709 28.6083 6.02332)" fill="#72EDF2"/>
<rect x="42.7705" y="25.8622" width="8.65583" height="3.50168" rx="1.75084" transform="rotate(42.0326 42.7705 25.8622)" fill="#72EDF2"/>
<rect x="49.1982" y="18.9529" width="9.64181" height="3.50168" rx="1.75084" transform="rotate(156.274 49.1982 18.9529)" fill="#72EDF2"/>
<path d="M12.1822 48.9798C10.9014 49.3934 9.65232 48.2674 9.93134 46.9507L16.6435 15.2764C16.923 13.9569 18.5268 13.4358 19.5285 14.3389L43.6275 36.0625C44.6293 36.9656 44.2768 38.6146 42.9933 39.0291L12.1822 48.9798Z" fill="#3A3ADB"/>
<path d="M9.30614 49.9101L15.1958 22.2185L36.2509 41.1983L9.30614 49.9101Z" fill="#72EDF2"/>
<path d="M9.30608 49.9107L13.0854 32.1027L26.6301 44.3125L9.30608 49.9107Z" fill="#3A3ADB"/>
<path d="M42.4945 9.11154C42.6479 9.56409 42.1424 11.2457 40.7693 12.2708C39.0529 13.5522 35.3103 15.8358 34.8414 16.356C34.3725 16.8762 32.9658 18.4367 33.1162 19.5152" stroke="#3A3ADB" stroke-width="4.52656" stroke-linecap="round"/>
</g>
<defs>
<clipPath id="clip0_615_3508">
<rect width="60" height="60" fill="white"/>
</clipPath>
</defs>
</svg>
