<svg width="60" height="60" viewBox="0 0 60 60" fill="none" xmlns="http://www.w3.org/2000/svg">
<path d="M37.9199 17.4003C28.6415 17.4003 21.1201 24.9217 21.1201 34.2001C21.1201 43.4785 28.6415 50.9999 37.9199 50.9999C38.4719 50.9999 39.0175 50.9723 39.5557 50.9202C39.5792 50.9179 39.5996 50.9364 39.5996 50.96C39.5996 50.982 39.6175 50.9999 39.6395 50.9999H51.3597C53.2154 50.9999 54.7197 49.4956 54.7197 47.6399V35.9197C54.7197 35.8976 54.7019 35.8798 54.6798 35.8798C54.6562 35.8798 54.6378 35.8594 54.64 35.8359C54.6921 35.2976 54.7197 34.752 54.7197 34.2001C54.7197 24.9218 47.1982 17.4004 37.9199 17.4003Z" fill="#72EDF2"/>
<path d="M22.7998 9C32.0781 9 39.5995 16.5215 39.5996 25.7998C39.5996 35.0782 32.0782 42.5996 22.7998 42.5996C22.2477 42.5996 21.7019 42.5729 21.1635 42.5208C21.1402 42.5186 21.1201 42.5368 21.1201 42.5602C21.1201 42.5819 21.1025 42.5996 21.0807 42.5996H9.36C7.50432 42.5996 6 41.0953 6 39.2396V27.5194C6 27.4974 6.01787 27.4795 6.03991 27.4795C6.06352 27.4795 6.08196 27.4591 6.07969 27.4356C6.02763 26.8974 6 26.3517 6 25.7998C6.00011 16.5216 13.5216 9.00011 22.7998 9Z" fill="#3A3ADB" fill-opacity="0.8"/>
</svg>
