<svg width="60" height="60" viewBox="0 0 60 60" fill="none" xmlns="http://www.w3.org/2000/svg">
<path d="M30.2567 9C41.9365 9.00025 51.4051 18.4686 51.4052 30.1484C51.4052 41.8283 41.9366 51.2966 30.2567 51.2969C26.8088 51.2968 23.5534 50.4714 20.6776 49.0078L10.2518 50.3125C8.67214 50.5101 7.50644 48.8725 8.20985 47.4443L11.7147 40.3262C10.0539 37.3067 9.10829 33.838 9.10829 30.1484C9.10838 18.4686 18.5769 9.00014 30.2567 9ZM18.5009 32C17.6724 32 17.0009 32.6716 17.0009 33.5C17.0009 34.3284 17.6724 35 18.5009 35H42.5009C43.3291 34.9997 44.0009 34.3283 44.0009 33.5C44.0009 32.6717 43.3291 32.0003 42.5009 32H18.5009ZM18.4999 24C17.6715 24 16.9999 24.6716 16.9999 25.5C16.9999 26.3284 17.6715 27 18.4999 27H42.4999C43.3281 26.9997 43.9999 26.3283 43.9999 25.5C43.9999 24.6717 43.3281 24.0003 42.4999 24H18.4999Z" fill="#3A3ADB"/>
</svg>
