<svg width="60" height="60" viewBox="0 0 60 60" fill="none" xmlns="http://www.w3.org/2000/svg">
<path d="M28.6123 9.00012C34.0247 9.00016 38.9492 11.0871 42.627 14.4991L28.2988 26.1329C26.7961 27.3529 26.5673 29.5599 27.7871 31.0626C29.0071 32.5653 31.2141 32.7952 32.7168 31.5753L46.8857 20.0714C48.3784 22.9244 49.2246 26.1694 49.2246 29.6124C49.2245 40.9961 39.996 50.2247 28.6123 50.2247C17.2286 50.2247 8.00008 40.9961 8 29.6124C8 18.2286 17.2285 9.00012 28.6123 9.00012Z" fill="#3A3ADB"/>
<path d="M28.6121 14.6218C32.2601 14.6218 35.6036 15.9255 38.2029 18.0916L28.2986 26.1335C26.796 27.3536 26.5669 29.5605 27.7869 31.0632C29.0069 32.5659 31.2138 32.7949 32.7166 31.575L42.3972 23.7156C43.1726 25.5257 43.6033 27.5192 43.6033 29.613C43.6031 37.892 36.8911 44.6033 28.6121 44.6033C20.3331 44.6032 13.622 37.8919 13.6218 29.613C13.6218 21.334 20.333 14.6219 28.6121 14.6218Z" fill="#72EDF2"/>
<path d="M28.6121 14.6218C32.2601 14.6218 35.6036 15.9255 38.2029 18.0916L28.2986 26.1335C26.796 27.3536 26.5669 29.5605 27.7869 31.0632C29.0069 32.5659 31.2138 32.7949 32.7166 31.575L42.3972 23.7156C43.1726 25.5257 43.6033 27.5192 43.6033 29.613C43.6031 37.892 36.8911 44.6033 28.6121 44.6033C20.3331 44.6032 13.622 37.8919 13.6218 29.613C13.6218 21.334 20.333 14.6219 28.6121 14.6218Z" fill="#72EDF2"/>
<rect x="28.6119" y="27.8967" width="27.0826" height="3.74767" rx="1.87383" transform="rotate(-39.0713 28.6119 27.8967)" fill="#72EDF2"/>
<path d="M28.6113 22.1168C29.8917 22.1168 31.0971 22.4386 32.1514 23.0045L28.2988 26.1334C26.7962 27.3534 26.5672 29.5604 27.7871 31.0631C29.0071 32.5657 31.2141 32.7948 32.7168 31.5748L36.0684 28.8531C36.0935 29.1027 36.1074 29.3558 36.1074 29.6119C36.1074 33.7515 32.7509 37.108 28.6113 37.108C24.4719 37.1079 21.1162 33.7514 21.1162 29.6119C21.1164 25.4726 24.472 22.117 28.6113 22.1168Z" fill="#3A3ADB"/>
</svg>
