<svg width="60" height="60" viewBox="0 0 60 60" fill="none" xmlns="http://www.w3.org/2000/svg">
<path d="M22.3505 23.3855V15.9925C22.8433 14.0211 25.3077 9.33868 31.222 10.0784C34.9626 10.5462 36.1507 13.7747 37.1364 15.2533" stroke="#72EDF2" stroke-width="4.43578" stroke-linecap="round"/>
<rect x="12" y="23.385" width="35.4862" height="26.6147" rx="2.95719" fill="#3A3ADB"/>
<path d="M29.7424 30.7003C32.1922 30.7003 34.1789 32.6861 34.179 35.1359C34.179 37.0668 32.9442 38.7083 31.2219 39.3175V42.5294C31.2217 43.3459 30.5599 44.0079 29.7434 44.0079C28.9271 44.0078 28.2651 43.3457 28.2649 42.5294V39.3185C26.5418 38.7096 25.3069 37.0674 25.3069 35.1359C25.307 32.6862 27.2928 30.7005 29.7424 30.7003Z" fill="#72EDF2"/>
</svg>
