<svg width="60" height="60" viewBox="0 0 60 60" fill="none" xmlns="http://www.w3.org/2000/svg">
<path d="M35.2727 12C37.1303 12 38.6368 13.5058 38.637 15.3633V43.9541H21.8186V15.3633C21.8188 13.5058 23.3244 12.0001 25.1819 12H35.2727ZM30.5374 18.8135L28.0139 19.6543C27.1329 19.9481 26.6567 20.9011 26.9504 21.7822C27.2443 22.6631 28.1973 23.1394 29.0784 22.8457L29.387 22.7422V28.8184C29.3871 29.747 30.1399 30.4999 31.0686 30.5C31.9972 30.4998 32.7501 29.747 32.7502 28.8184V18.0762L30.5374 18.8135Z" fill="#3A3ADB"/>
<path d="M8.36401 23.7727C8.36401 21.915 9.86997 20.4091 11.7277 20.4091H21.8186V43.9545H8.36401V23.7727Z" fill="#72EDF2"/>
<path d="M38.6367 27.1364H48.7276C50.5853 27.1364 52.0913 28.6423 52.0913 30.5V43.9545H38.6367V27.1364Z" fill="#72EDF2"/>
<rect x="5" y="43.9546" width="50.4545" height="5.04545" rx="2.52273" fill="#3A3ADB"/>
</svg>
