<svg width="60" height="60" viewBox="0 0 60 60" fill="none" xmlns="http://www.w3.org/2000/svg">
<path d="M44.7725 9.4258C46.0861 8.40428 47.9997 9.33995 48 11.0039V36.959C47.9999 38.1932 47.4302 39.3585 46.4561 40.1162L31.2279 51.9601C30.5056 52.5218 29.4944 52.5218 28.7721 51.9601L13.5439 40.1162C12.5698 39.3585 12.0001 38.1932 12 36.959V11.0039C12.0003 9.33995 13.9139 8.40428 15.2275 9.4258L28.7722 19.9601C29.4944 20.5218 30.5056 20.5218 31.2279 19.9601L44.7725 9.4258Z" fill="#3A3ADB"/>
<path d="M12 11.0892V37.0435C12 38.2779 12.5699 39.4431 13.5442 40.201L30 52.9999V20.9999L15.2279 9.51045C13.9142 8.48867 12 9.42486 12 11.0892Z" fill="#72EDF2"/>
</svg>
