<svg width="60" height="60" viewBox="0 0 60 60" fill="none" xmlns="http://www.w3.org/2000/svg">
<path d="M13.0068 33.8499V15.7586C13.0068 14.7638 13.8133 13.9573 14.8082 13.9573H23.1829C23.5919 13.9573 23.9888 14.0965 24.3082 14.352L32.8214 21.1626L47.8019 35.2619C48.019 35.4662 48.1831 35.7187 48.2493 36.0093C48.5419 37.2945 48.991 40.9771 44.53 40.9771C44.53 40.9771 43.6293 44.5798 39.126 43.6791C39.126 43.6791 37.3247 47.2817 32.8214 45.4804C32.8214 45.4804 31.0964 48.0679 26.8023 46.4906C26.6138 46.4214 26.4393 46.3139 26.2876 46.1825L13.6284 35.2112C13.2336 34.869 13.0068 34.3724 13.0068 33.8499Z" fill="#3A3ADB"/>
<path d="M45.4306 35.07H48.1326V17.0565L42.7287 15.2552C39.126 13.957 33.1744 12.5538 31.0201 12.1553C28.7796 11.7408 26.5168 12.2532 25.6161 12.5535C22.6139 14.0546 16.6095 17.9574 16.6095 21.5601C16.6095 26.0634 18.4108 26.0634 20.2121 26.0634C22.0135 26.0634 23.8148 23.3614 25.6161 21.5601C27.0572 20.119 28.6183 20.3592 29.2188 20.6594L45.4306 35.07Z" fill="#72EDF2"/>
<rect x="4" y="13.9573" width="9.00661" height="21.6159" rx="1.80132" fill="#72EDF2"/>
<rect x="47.2316" y="13.9573" width="9.00661" height="21.6159" rx="1.80132" fill="#3A3ADB"/>
</svg>
