<svg width="48" height="48" viewBox="0 0 48 48" fill="none" xmlns="http://www.w3.org/2000/svg">
<path d="M23.7958 21.6509V26.2192H30.1442C29.8654 27.6883 29.0289 28.9323 27.7743 29.7687L31.6026 32.7392C33.8331 30.6803 35.1199 27.6562 35.1199 24.0638C35.1199 23.2274 35.0449 22.423 34.9054 21.651L23.7958 21.6509Z" fill="#4285F4"/>
<path d="M17.185 26.0403L16.3216 26.7012L13.2653 29.0818C15.2063 32.9316 19.1845 35.5911 23.7956 35.5911C26.9804 35.5911 29.6506 34.5402 31.6023 32.7386L27.774 29.7682C26.7231 30.4759 25.3826 30.9049 23.7956 30.9049C20.7287 30.9049 18.1229 28.8353 17.1899 26.0471L17.185 26.0403Z" fill="#34A853"/>
<path d="M13.2653 18.5088C12.4611 20.0958 12 21.8867 12 23.7955C12 25.7042 12.4611 27.4951 13.2653 29.0822C13.2653 29.0928 17.1902 26.0366 17.1902 26.0366C16.9543 25.3289 16.8149 24.5783 16.8149 23.7953C16.8149 23.0124 16.9543 22.2618 17.1902 21.5541L13.2653 18.5088Z" fill="#FBBC05"/>
<path d="M23.7958 16.6969C25.5331 16.6969 27.0773 17.2975 28.3105 18.4556L31.6884 15.0777C29.6402 13.1689 26.9808 12 23.7958 12C19.1847 12 15.2063 14.6487 13.2653 18.5093L17.1901 21.5548C18.123 18.7666 20.7289 16.6969 23.7958 16.6969Z" fill="#EA4335"/>
</svg>
