<svg width="95" height="95" viewBox="0 0 95 95" fill="none" xmlns="http://www.w3.org/2000/svg">
<path d="M89.0645 20.7811V38.5936C89.0645 39.3809 88.7517 40.1361 88.1949 40.6928C87.6382 41.2496 86.8831 41.5623 86.0957 41.5623H68.2832C67.4958 41.5623 66.7407 41.2496 66.184 40.6928C65.6272 40.1361 65.3145 39.3809 65.3145 38.5936C65.3145 37.8062 65.6272 37.0511 66.184 36.4944C66.7407 35.9376 67.4958 35.6248 68.2832 35.6248H78.4512L68.5838 26.585L68.491 26.4959C64.3647 22.3712 59.1145 19.5537 53.3962 18.3955C47.678 17.2373 41.7452 17.7896 36.3391 19.9836C30.9329 22.1776 26.2931 25.9158 22.9992 30.7315C19.7052 35.5471 17.9033 41.2265 17.8184 47.0602C17.7335 52.894 19.3695 58.6234 22.5219 63.5328C25.6743 68.4422 30.2035 72.3139 35.5435 74.6642C40.8835 77.0146 46.7977 77.7393 52.5472 76.7479C58.2968 75.7565 63.6267 73.093 67.8713 69.0901C68.4436 68.5488 69.2075 68.257 69.995 68.2789C70.7824 68.3008 71.5289 68.6346 72.0702 69.207C72.6115 69.7793 72.9033 70.5432 72.8814 71.3306C72.8595 72.1181 72.5256 72.8646 71.9533 73.4059C65.3533 79.6652 56.5981 83.1453 47.502 83.1248H47.0121C41.1776 83.0449 35.4519 81.5331 30.3385 78.7221C25.2251 75.9112 20.8804 71.8873 17.6863 67.004C14.4922 62.1207 12.5465 56.5276 12.0202 50.7163C11.4939 44.905 12.4032 39.0533 14.668 33.6757C16.9328 28.298 20.4839 23.5591 25.0092 19.8752C29.5344 16.1914 34.8953 13.6755 40.6206 12.5487C46.3459 11.4219 52.2603 11.7187 57.844 13.413C63.4277 15.1072 68.5098 18.1471 72.6436 22.2655L83.127 31.8397V20.7811C83.127 19.9937 83.4397 19.2386 83.9965 18.6819C84.5532 18.1251 85.3083 17.8123 86.0957 17.8123C86.8831 17.8123 87.6382 18.1251 88.1949 18.6819C88.7517 19.2386 89.0645 19.9937 89.0645 20.7811Z" fill="#37383E"/>
</svg>
