<svg width="32" height="32" viewBox="0 0 32 32" fill="none" xmlns="http://www.w3.org/2000/svg">
<path d="M28.8625 9.19989C28.4714 9.00818 28.028 8.95071 27.601 9.03634C27.1739 9.12198 26.787 9.34596 26.5 9.67364L22.2913 14.2099L17.8163 4.17364C17.816 4.16947 17.816 4.1653 17.8163 4.16114C17.6562 3.81407 17.4001 3.52012 17.0782 3.31408C16.7564 3.10804 16.3822 2.99854 16 2.99854C15.6178 2.99854 15.2436 3.10804 14.9218 3.31408C14.5999 3.52012 14.3438 3.81407 14.1838 4.16114C14.184 4.1653 14.184 4.16947 14.1838 4.17364L9.70876 14.2099L5.50001 9.67364C5.21121 9.3459 4.82307 9.12172 4.39487 9.03536C3.96667 8.949 3.52197 9.0052 3.12872 9.19538C2.73547 9.38555 2.4153 9.69925 2.21712 10.0885C2.01895 10.4778 1.95367 10.9213 2.03126 11.3511C2.03126 11.3649 2.03126 11.3774 2.04001 11.3911L4.87501 24.3749C4.96228 24.8321 5.20628 25.2445 5.56496 25.5411C5.92365 25.8378 6.37456 26 6.84001 25.9999H25.1613C25.6265 25.9997 26.0771 25.8373 26.4355 25.5407C26.794 25.2441 27.0378 24.8319 27.125 24.3749L29.96 11.3911C29.96 11.3774 29.96 11.3649 29.9688 11.3511C30.0478 10.9207 29.9822 10.4763 29.7821 10.0871C29.5819 9.69791 29.2586 9.38595 28.8625 9.19989ZM25.1688 23.9599L25.1613 23.9999H6.83876L6.83126 23.9599L4.00001 10.9999L4.01751 11.0199L9.26751 16.6749C9.37993 16.7964 9.52074 16.888 9.67732 16.9417C9.83389 16.9953 10.0013 17.0093 10.1646 16.9823C10.3279 16.9553 10.482 16.8881 10.6129 16.7869C10.7439 16.6857 10.8477 16.5536 10.915 16.4024L16 4.99989L21.0863 16.4061C21.1536 16.5573 21.2574 16.6895 21.3883 16.7907C21.5193 16.8919 21.6733 16.959 21.8366 16.986C21.9999 17.013 22.1674 16.9991 22.3239 16.9454C22.4805 16.8918 22.6213 16.8001 22.7338 16.6786L27.9838 11.0236L28 10.9999L25.1688 23.9599Z" fill="#1A1B1E"/>
</svg>
