<svg width="24" height="24" viewBox="0 0 24 24" fill="none" xmlns="http://www.w3.org/2000/svg">
<path d="M4.15179 4.56359L4.22676 4.47676C4.50162 4.2019 4.93172 4.17692 5.2348 4.40179L5.32163 4.47676L12 11.1548L18.6784 4.47676C18.9808 4.17442 19.4709 4.17442 19.7732 4.47676C20.0756 4.77909 20.0756 5.26929 19.7732 5.57163L13.0952 12.25L19.7732 18.9284C20.0481 19.2032 20.0731 19.6333 19.8482 19.9364L19.7732 20.0232C19.4984 20.2981 19.0683 20.3231 18.7652 20.0982L18.6784 20.0232L12 13.3452L5.32163 20.0232C5.01929 20.3256 4.52909 20.3256 4.22676 20.0232C3.92442 19.7209 3.92442 19.2308 4.22676 18.9284L10.9048 12.25L4.22676 5.57163C3.9519 5.29677 3.92692 4.86667 4.15179 4.56359Z" fill="black"/>
</svg>
