<svg width="36" height="36" viewBox="0 0 36 36" fill="none" xmlns="http://www.w3.org/2000/svg">
<path d="M30.0459 14.2958L18.7959 25.5458C18.6915 25.6504 18.5674 25.7334 18.4308 25.79C18.2942 25.8466 18.1478 25.8758 18 25.8758C17.8522 25.8758 17.7058 25.8466 17.5692 25.79C17.4326 25.7334 17.3085 25.6504 17.2041 25.5458L5.95406 14.2958C5.74297 14.0847 5.62437 13.7984 5.62437 13.4999C5.62437 13.2014 5.74297 12.9151 5.95406 12.704C6.16516 12.4929 6.45147 12.3743 6.75 12.3743C7.04853 12.3743 7.33484 12.4929 7.54594 12.704L18 23.1594L28.4541 12.704C28.5586 12.5994 28.6827 12.5165 28.8192 12.46C28.9558 12.4034 29.1022 12.3743 29.25 12.3743C29.3978 12.3743 29.5442 12.4034 29.6808 12.46C29.8173 12.5165 29.9414 12.5994 30.0459 12.704C30.1505 12.8085 30.2334 12.9326 30.2899 13.0691C30.3465 13.2057 30.3756 13.3521 30.3756 13.4999C30.3756 13.6477 30.3465 13.7941 30.2899 13.9307C30.2334 14.0672 30.1505 14.1913 30.0459 14.2958Z" fill="#323339"/>
</svg>
