<svg width="28" height="28" viewBox="0 0 28 28" fill="none" xmlns="http://www.w3.org/2000/svg">
<path d="M18.119 22.1309C18.2003 22.2122 18.2648 22.3087 18.3088 22.415C18.3528 22.5212 18.3755 22.635 18.3755 22.75C18.3755 22.865 18.3528 22.9788 18.3088 23.085C18.2648 23.1913 18.2003 23.2878 18.119 23.3691C18.0378 23.4504 17.9412 23.5148 17.835 23.5588C17.7288 23.6028 17.615 23.6255 17.5 23.6255C17.385 23.6255 17.2712 23.6028 17.165 23.5588C17.0587 23.5148 16.9622 23.4504 16.8809 23.3691L8.13092 14.6191C8.04957 14.5378 7.98503 14.4413 7.941 14.3351C7.89696 14.2288 7.8743 14.115 7.8743 14C7.8743 13.885 7.89696 13.7711 7.941 13.6649C7.98503 13.5587 8.04957 13.4622 8.13092 13.3809L16.8809 4.63094C17.0451 4.46675 17.2678 4.37451 17.5 4.37451C17.7322 4.37451 17.9549 4.46675 18.119 4.63094C18.2832 4.79512 18.3755 5.0178 18.3755 5.25C18.3755 5.48219 18.2832 5.70488 18.119 5.86906L9.98702 14L18.119 22.1309Z" fill="#323339"/>
</svg>
