<svg width="20" height="20" viewBox="0 0 20 20" fill="none" xmlns="http://www.w3.org/2000/svg">
<path d="M10 4.79167C7.12351 4.79167 4.79167 7.12351 4.79167 10C4.79167 12.8765 7.12351 15.2083 10 15.2083C12.8765 15.2083 15.2083 12.8765 15.2083 10C15.2083 9.73861 15.1891 9.48181 15.1519 9.23076C15.1052 8.91542 15.336 8.61111 15.6548 8.61111C15.9124 8.61111 16.1382 8.78903 16.1773 9.04361C16.2251 9.35542 16.25 9.67479 16.25 10C16.25 13.4518 13.4518 16.25 10 16.25C6.54822 16.25 3.75 13.4518 3.75 10C3.75 6.54822 6.54822 3.75 10 3.75C11.6008 3.75 13.0609 4.35178 14.1667 5.34144V4.61806C14.1667 4.33041 14.3999 4.09722 14.6875 4.09722C14.9751 4.09722 15.2083 4.33041 15.2083 4.61806V6.70139C15.2083 6.98903 14.9751 7.22222 14.6875 7.22222H12.6042C12.3165 7.22222 12.0833 6.98903 12.0833 6.70139C12.0833 6.41374 12.3165 6.18056 12.6042 6.18056H13.541C12.6117 5.31863 11.3674 4.79167 10 4.79167Z" fill="#323339"/>
</svg>
