<svg width="60" height="60" viewBox="0 0 60 60" fill="none" xmlns="http://www.w3.org/2000/svg">
<path d="M28.0979 5.8541C28.6966 4.01148 31.3034 4.01148 31.9021 5.8541L36.2864 19.3475C36.5541 20.1716 37.3221 20.7295 38.1885 20.7295H52.3763C54.3138 20.7295 55.1193 23.2087 53.5519 24.3475L42.0737 32.6869C41.3727 33.1962 41.0794 34.0989 41.3472 34.923L45.7314 48.4164C46.3302 50.259 44.2212 51.7913 42.6538 50.6525L31.1756 42.3131C30.4746 41.8038 29.5254 41.8038 28.8244 42.3131L17.3462 50.6525C15.7788 51.7913 13.6699 50.259 14.2686 48.4164L18.6528 34.923C18.9206 34.0989 18.6273 33.1962 17.9263 32.6869L6.4481 24.3475C4.88067 23.2087 5.68622 20.7295 7.62367 20.7295H21.8115C22.6779 20.7295 23.4459 20.1716 23.7136 19.3475L28.0979 5.8541Z" fill="#FFD500"/>
</svg>
