<svg width="28" height="28" viewBox="0 0 28 28" fill="none" xmlns="http://www.w3.org/2000/svg">
<path d="M23.3691 18.119C23.2878 18.2004 23.1913 18.2649 23.0851 18.3089C22.9788 18.353 22.865 18.3756 22.75 18.3756C22.635 18.3756 22.5211 18.353 22.4149 18.3089C22.3087 18.2649 22.2122 18.2004 22.1309 18.119L14 9.98699L5.86906 18.119C5.70488 18.2832 5.48219 18.3754 5.25 18.3754C5.0178 18.3754 4.79512 18.2832 4.63094 18.119C4.46675 17.9548 4.37451 17.7321 4.37451 17.5C4.37451 17.2678 4.46675 17.0451 4.63094 16.8809L13.3809 8.13089C13.4622 8.04954 13.5587 7.985 13.6649 7.94097C13.7711 7.89693 13.885 7.87427 14 7.87427C14.115 7.87427 14.2288 7.89693 14.3351 7.94097C14.4413 7.985 14.5378 8.04954 14.6191 8.13089L23.3691 16.8809C23.4504 16.9622 23.515 17.0587 23.559 17.1649C23.603 17.2711 23.6257 17.385 23.6257 17.5C23.6257 17.6149 23.603 17.7288 23.559 17.835C23.515 17.9413 23.4504 18.0378 23.3691 18.119Z" fill="#323339"/>
</svg>
