<svg width="36" height="36" viewBox="0 0 36 36" fill="none" xmlns="http://www.w3.org/2000/svg">
<path d="M30.0459 23.2958C29.9415 23.4004 29.8174 23.4834 29.6808 23.54C29.5442 23.5967 29.3978 23.6258 29.25 23.6258C29.1022 23.6258 28.9558 23.5967 28.8192 23.54C28.6826 23.4834 28.5585 23.4004 28.4541 23.2958L18 12.8404L7.54594 23.2958C7.33484 23.5069 7.04853 23.6255 6.75 23.6255C6.45147 23.6255 6.16516 23.5069 5.95406 23.2958C5.74297 23.0848 5.62437 22.7984 5.62437 22.4999C5.62437 22.2014 5.74297 21.9151 5.95406 21.704L17.2041 10.454C17.3085 10.3494 17.4326 10.2664 17.5692 10.2098C17.7058 10.1532 17.8522 10.124 18 10.124C18.1478 10.124 18.2942 10.1532 18.4308 10.2098C18.5674 10.2664 18.6915 10.3494 18.7959 10.454L30.0459 21.704C30.1505 21.8085 30.2335 21.9325 30.2901 22.0691C30.3467 22.2057 30.3759 22.3521 30.3759 22.4999C30.3759 22.6478 30.3467 22.7941 30.2901 22.9307C30.2335 23.0673 30.1505 23.1914 30.0459 23.2958Z" fill="#323339"/>
</svg>
