<svg width="320" height="320" viewBox="0 0 320 320" fill="none" xmlns="http://www.w3.org/2000/svg">
<circle cx="39" cy="121" r="25" fill="#E3FBFC"/>
<circle cx="282" cy="222" r="25" fill="#E3FBFC"/>
<path d="M33.5246 109.796L19.4445 89.5683C18.9828 88.9051 18.5409 88.2147 18.3459 87.4305C17.5894 84.3877 18.4083 79.2616 22.7547 77.1273C27.5937 74.7511 31.592 76.9687 33.7041 79.1231C34.6049 80.0419 35.102 81.2554 35.4887 82.4826L42.5432 104.874C42.8692 105.908 43.1408 106.984 42.9734 108.055C42.7472 109.504 42.0236 111.259 40.2246 112.142C38.2499 113.113 36.3203 112.375 35.1046 111.532C34.456 111.083 33.9754 110.444 33.5246 109.796Z" fill="#3A3ADB"/>
<ellipse cx="44.1282" cy="119.816" rx="5.86957" ry="6.26087" transform="rotate(-26.1644 44.1282 119.816)" fill="#3A3ADB"/>
<path d="M272.26 202.954L278.189 179.032C278.384 178.247 278.612 177.46 279.073 176.796C280.862 174.222 285.257 171.458 289.727 173.32C294.703 175.392 295.672 179.861 295.444 182.869C295.347 184.152 294.762 185.326 294.094 186.426L281.907 206.491C281.344 207.418 280.714 208.331 279.798 208.911C278.559 209.696 276.763 210.309 274.912 209.539C272.881 208.693 272.164 206.756 271.996 205.286C271.907 204.502 272.071 203.719 272.26 202.954Z" fill="#3A3ADB"/>
<ellipse cx="271.715" cy="217.532" rx="5.86957" ry="6.26087" transform="rotate(22.5971 271.715 217.532)" fill="#3A3ADB"/>
<path d="M122.221 152.173H88.4307C88.4307 153.586 88.4307 155.021 88.4307 156.477C88.4307 157.891 88.4307 159.282 88.4307 160.653C88.4307 161.98 88.4307 163.265 88.4307 164.507L62.2206 159.561C62.2206 157.034 62.2206 154.507 62.2206 151.98C62.2206 149.454 62.2206 146.927 62.2206 144.4C62.2206 141.873 62.2206 139.346 62.2206 136.82H122.221V152.173ZM88.4949 164.507C88.4949 162.751 88.9874 161.188 89.9725 159.818C90.9575 158.447 92.2637 157.312 93.8911 156.413C95.5614 155.471 97.4458 154.764 99.5443 154.293C101.643 153.822 103.806 153.586 106.033 153.586C108.003 153.586 109.93 153.779 111.814 154.165C113.741 154.507 115.54 155.064 117.21 155.835C118.924 156.563 120.422 157.505 121.707 158.661C122.992 159.775 123.999 161.103 124.727 162.644C125.497 164.143 125.883 165.878 125.883 167.848C125.883 170.974 125.026 173.736 123.313 176.135C121.6 178.533 119.266 180.525 116.311 182.109C113.399 183.694 110.101 184.893 106.418 185.707C102.735 186.52 98.9447 186.927 95.0475 186.927C90.9361 186.927 86.9103 186.478 82.9703 185.578C79.073 184.722 75.5184 183.437 72.3063 181.724C69.1371 180.011 66.6103 177.891 64.7259 175.364C62.8416 172.794 61.8994 169.861 61.8994 166.563L88.4307 164.507C88.4307 165.407 88.7519 166.178 89.3943 166.82C90.0795 167.42 90.9575 167.869 92.0282 168.169C93.0988 168.469 94.1909 168.619 95.3044 168.619C96.1181 168.619 96.9104 168.533 97.6813 168.362C98.495 168.19 99.2017 167.955 99.8013 167.655C100.444 167.312 100.936 166.906 101.279 166.434C101.664 165.921 101.857 165.342 101.857 164.7C101.857 163.372 101.193 162.409 99.8655 161.809C98.5379 161.21 97.0603 160.91 95.4329 160.91C94.2766 160.91 93.1631 161.06 92.0924 161.359C91.0646 161.616 90.208 162.023 89.5228 162.58C88.8376 163.094 88.4949 163.736 88.4949 164.507ZM162.47 186.927C157.759 186.927 153.519 186.52 149.75 185.707C145.981 184.893 142.684 183.715 139.857 182.173C137.031 180.632 134.675 178.79 132.791 176.649C130.906 174.507 129.493 172.13 128.551 169.518C127.609 166.863 127.138 164.015 127.138 160.974C127.138 157.548 127.78 154.272 129.065 151.145C130.392 148.019 132.448 145.235 135.232 142.794C138.058 140.353 141.699 138.426 146.153 137.012C150.65 135.599 156.089 134.892 162.47 134.892C166.71 134.892 170.521 135.214 173.905 135.856C177.331 136.498 180.35 137.419 182.963 138.618C185.575 139.775 187.823 141.167 189.708 142.794C191.592 144.421 193.113 146.22 194.269 148.19C195.468 150.117 196.346 152.173 196.903 154.357C197.502 156.499 197.802 158.704 197.802 160.974C197.802 163.501 197.46 165.899 196.774 168.169C196.132 170.439 195.147 172.537 193.819 174.465C192.534 176.392 190.907 178.126 188.937 179.668C187.01 181.167 184.74 182.473 182.127 183.587C179.515 184.657 176.56 185.471 173.262 186.028C170.007 186.627 166.41 186.927 162.47 186.927ZM162.341 166.113C163.84 166.113 165.104 165.963 166.132 165.664C167.159 165.364 167.995 164.957 168.637 164.443C169.279 163.929 169.75 163.372 170.05 162.773C170.35 162.173 170.5 161.595 170.5 161.038C170.5 160.524 170.414 160.01 170.243 159.497C170.072 158.983 169.793 158.511 169.408 158.083C169.065 157.612 168.594 157.205 167.995 156.863C167.395 156.477 166.646 156.199 165.746 156.028C164.89 155.813 163.883 155.706 162.727 155.706C161.228 155.706 159.943 155.856 158.872 156.156C157.845 156.456 156.988 156.863 156.303 157.377C155.66 157.848 155.189 158.404 154.89 159.047C154.59 159.689 154.44 160.332 154.44 160.974C154.44 161.616 154.568 162.237 154.825 162.837C155.082 163.437 155.51 163.993 156.11 164.507C156.71 164.978 157.523 165.364 158.551 165.664C159.579 165.963 160.842 166.113 162.341 166.113ZM234.427 186.927C229.716 186.927 225.476 186.52 221.707 185.707C217.938 184.893 214.641 183.715 211.814 182.173C208.988 180.632 206.632 178.79 204.748 176.649C202.863 174.507 201.45 172.13 200.508 169.518C199.566 166.863 199.094 164.015 199.094 160.974C199.094 157.548 199.737 154.272 201.022 151.145C202.349 148.019 204.405 145.235 207.189 142.794C210.015 140.353 213.656 138.426 218.11 137.012C222.607 135.599 228.046 134.892 234.427 134.892C238.667 134.892 242.478 135.214 245.862 135.856C249.288 136.498 252.307 137.419 254.919 138.618C257.532 139.775 259.78 141.167 261.665 142.794C263.549 144.421 265.069 146.22 266.226 148.19C267.425 150.117 268.303 152.173 268.86 154.357C269.459 156.499 269.759 158.704 269.759 160.974C269.759 163.501 269.416 165.899 268.731 168.169C268.089 170.439 267.104 172.537 265.776 174.465C264.491 176.392 262.864 178.126 260.894 179.668C258.967 181.167 256.697 182.473 254.084 183.587C251.472 184.657 248.517 185.471 245.219 186.028C241.964 186.627 238.367 186.927 234.427 186.927ZM234.298 166.113C235.797 166.113 237.061 165.963 238.088 165.664C239.116 165.364 239.951 164.957 240.594 164.443C241.236 163.929 241.707 163.372 242.007 162.773C242.307 162.173 242.457 161.595 242.457 161.038C242.457 160.524 242.371 160.01 242.2 159.497C242.029 158.983 241.75 158.511 241.365 158.083C241.022 157.612 240.551 157.205 239.951 156.863C239.352 156.477 238.602 156.199 237.703 156.028C236.846 155.813 235.84 155.706 234.684 155.706C233.185 155.706 231.9 155.856 230.829 156.156C229.801 156.456 228.945 156.863 228.26 157.377C227.617 157.848 227.146 158.404 226.846 159.047C226.547 159.689 226.397 160.332 226.397 160.974C226.397 161.616 226.525 162.237 226.782 162.837C227.039 163.437 227.467 163.993 228.067 164.507C228.667 164.978 229.48 165.364 230.508 165.664C231.536 165.963 232.799 166.113 234.298 166.113Z" fill="#3A3ADB"/>
</svg>
