<svg width="320" height="320" viewBox="0 0 320 320" fill="none" xmlns="http://www.w3.org/2000/svg">
<circle cx="39" cy="121" r="25" fill="#E3FBFC"/>
<circle cx="282" cy="222" r="25" fill="#E3FBFC"/>
<path d="M33.5246 109.796L19.4445 89.5683C18.9828 88.9051 18.5409 88.2147 18.3459 87.4305C17.5894 84.3877 18.4083 79.2616 22.7547 77.1273C27.5937 74.7511 31.592 76.9687 33.7041 79.1231C34.6049 80.0419 35.102 81.2554 35.4887 82.4826L42.5432 104.874C42.8692 105.908 43.1408 106.984 42.9734 108.055C42.7472 109.504 42.0236 111.259 40.2246 112.142C38.2499 113.113 36.3203 112.375 35.1046 111.532C34.456 111.083 33.9754 110.444 33.5246 109.796Z" fill="#3A3ADB"/>
<ellipse cx="44.1282" cy="119.816" rx="5.86957" ry="6.26087" transform="rotate(-26.1644 44.1282 119.816)" fill="#3A3ADB"/>
<path d="M272.26 202.954L278.189 179.032C278.384 178.247 278.612 177.46 279.073 176.796C280.862 174.222 285.257 171.458 289.727 173.32C294.703 175.392 295.672 179.861 295.444 182.869C295.347 184.152 294.762 185.326 294.094 186.426L281.907 206.491C281.344 207.418 280.714 208.331 279.798 208.911C278.559 209.696 276.763 210.309 274.912 209.539C272.881 208.693 272.164 206.756 271.996 205.286C271.907 204.502 272.071 203.719 272.26 202.954Z" fill="#3A3ADB"/>
<ellipse cx="271.715" cy="217.532" rx="5.86957" ry="6.26087" transform="rotate(22.5971 271.715 217.532)" fill="#3A3ADB"/>
<path d="M122.221 152.173H88.4307C88.4307 153.586 88.4307 155.021 88.4307 156.477C88.4307 157.891 88.4307 159.282 88.4307 160.653C88.4307 161.98 88.4307 163.265 88.4307 164.507L62.2206 159.561C62.2206 157.034 62.2206 154.507 62.2206 151.98C62.2206 149.454 62.2206 146.927 62.2206 144.4C62.2206 141.873 62.2206 139.346 62.2206 136.82H122.221V152.173ZM88.4949 164.507C88.4949 162.751 88.9874 161.188 89.9725 159.818C90.9575 158.447 92.2637 157.312 93.8911 156.413C95.5614 155.471 97.4458 154.764 99.5443 154.293C101.643 153.822 103.806 153.586 106.033 153.586C108.003 153.586 109.93 153.779 111.814 154.165C113.741 154.507 115.54 155.064 117.21 155.835C118.924 156.563 120.422 157.505 121.707 158.661C122.992 159.775 123.999 161.103 124.727 162.644C125.497 164.143 125.883 165.878 125.883 167.848C125.883 170.974 125.026 173.736 123.313 176.135C121.6 178.533 119.266 180.525 116.311 182.109C113.399 183.694 110.101 184.893 106.418 185.707C102.735 186.52 98.9447 186.927 95.0475 186.927C90.9361 186.927 86.9103 186.478 82.9703 185.578C79.073 184.722 75.5184 183.437 72.3063 181.724C69.1371 180.011 66.6103 177.891 64.7259 175.364C62.8416 172.794 61.8994 169.861 61.8994 166.563L88.4307 164.507C88.4307 165.407 88.7519 166.178 89.3943 166.82C90.0795 167.42 90.9575 167.869 92.0282 168.169C93.0988 168.469 94.1909 168.619 95.3044 168.619C96.1181 168.619 96.9104 168.533 97.6813 168.362C98.495 168.19 99.2017 167.955 99.8013 167.655C100.444 167.312 100.936 166.906 101.279 166.434C101.664 165.921 101.857 165.342 101.857 164.7C101.857 163.372 101.193 162.409 99.8655 161.809C98.5379 161.21 97.0603 160.91 95.4329 160.91C94.2766 160.91 93.1631 161.06 92.0924 161.359C91.0646 161.616 90.208 162.023 89.5228 162.58C88.8376 163.094 88.4949 163.736 88.4949 164.507ZM162.47 186.927C157.759 186.927 153.519 186.52 149.75 185.707C145.981 184.893 142.684 183.715 139.857 182.173C137.031 180.632 134.675 178.79 132.791 176.649C130.906 174.507 129.493 172.13 128.551 169.518C127.609 166.863 127.138 164.015 127.138 160.974C127.138 157.548 127.78 154.272 129.065 151.145C130.392 148.019 132.448 145.235 135.232 142.794C138.058 140.353 141.699 138.426 146.153 137.012C150.65 135.599 156.089 134.892 162.47 134.892C166.71 134.892 170.521 135.214 173.905 135.856C177.331 136.498 180.35 137.419 182.963 138.618C185.575 139.775 187.823 141.167 189.708 142.794C191.592 144.421 193.113 146.22 194.269 148.19C195.468 150.117 196.346 152.173 196.903 154.357C197.502 156.499 197.802 158.704 197.802 160.974C197.802 163.501 197.46 165.899 196.774 168.169C196.132 170.439 195.147 172.537 193.819 174.465C192.534 176.392 190.907 178.126 188.937 179.668C187.01 181.167 184.74 182.473 182.127 183.587C179.515 184.657 176.56 185.471 173.262 186.028C170.007 186.627 166.41 186.927 162.47 186.927ZM162.341 166.113C163.84 166.113 165.104 165.963 166.132 165.664C167.159 165.364 167.995 164.957 168.637 164.443C169.279 163.929 169.75 163.372 170.05 162.773C170.35 162.173 170.5 161.595 170.5 161.038C170.5 160.524 170.414 160.01 170.243 159.497C170.072 158.983 169.793 158.511 169.408 158.083C169.065 157.612 168.594 157.205 167.995 156.863C167.395 156.477 166.646 156.199 165.746 156.028C164.89 155.813 163.883 155.706 162.727 155.706C161.228 155.706 159.943 155.856 158.872 156.156C157.845 156.456 156.988 156.863 156.303 157.377C155.66 157.848 155.189 158.404 154.89 159.047C154.59 159.689 154.44 160.332 154.44 160.974C154.44 161.616 154.568 162.237 154.825 162.837C155.082 163.437 155.51 163.993 156.11 164.507C156.71 164.978 157.523 165.364 158.551 165.664C159.579 165.963 160.842 166.113 162.341 166.113ZM255.755 158.597C255.712 158.597 255.69 158.619 255.69 158.661C255.69 158.661 255.69 158.683 255.69 158.726C255.69 158.726 255.712 158.726 255.755 158.726C258.624 159.068 260.937 159.775 262.693 160.846C264.491 161.873 265.819 163.18 266.676 164.764C267.532 166.349 267.96 168.126 267.96 170.096C267.96 172.837 267.04 175.257 265.198 177.355C263.356 179.454 260.872 181.21 257.746 182.623C254.62 184.036 251.086 185.107 247.146 185.835C243.249 186.563 239.223 186.927 235.069 186.927C231.3 186.927 227.574 186.627 223.891 186.028C220.208 185.428 216.782 184.507 213.613 183.266C210.486 182.024 207.767 180.46 205.454 178.576C203.184 176.692 201.536 174.486 200.508 171.959C199.48 169.39 199.266 166.477 199.865 163.222L226.525 160.267C226.268 161.424 226.332 162.409 226.718 163.222C227.103 164.036 227.703 164.7 228.517 165.214C229.33 165.728 230.273 166.113 231.343 166.37C232.457 166.584 233.57 166.691 234.684 166.691C235.626 166.691 236.547 166.606 237.446 166.434C238.345 166.263 239.138 166.028 239.823 165.728C240.551 165.428 241.108 165.064 241.493 164.636C241.921 164.165 242.136 163.651 242.136 163.094C242.136 162.366 241.943 161.809 241.557 161.424C241.215 161.038 240.53 160.781 239.502 160.653C238.474 160.524 236.954 160.46 234.941 160.46V159.24C236.911 159.24 238.367 159.154 239.309 158.983C240.294 158.768 240.936 158.469 241.236 158.083C241.579 157.655 241.75 157.12 241.75 156.477C241.75 155.963 241.557 155.514 241.172 155.128C240.787 154.7 240.251 154.336 239.566 154.036C238.881 153.736 238.11 153.522 237.253 153.394C236.44 153.222 235.583 153.137 234.684 153.137C233.185 153.137 231.729 153.372 230.315 153.843C228.945 154.314 227.874 155.085 227.103 156.156C226.375 157.184 226.183 158.554 226.525 160.267L199.223 155.899C199.18 152.944 199.823 150.332 201.15 148.062C202.478 145.792 204.298 143.822 206.611 142.152C208.966 140.481 211.643 139.111 214.641 138.04C217.681 136.97 220.915 136.177 224.341 135.663C227.767 135.149 231.236 134.892 234.748 134.892C238.817 134.892 242.757 135.214 246.568 135.856C250.38 136.498 253.785 137.441 256.782 138.683C259.823 139.925 262.221 141.424 263.977 143.179C265.776 144.935 266.676 146.948 266.676 149.218C266.676 151.531 265.712 153.565 263.785 155.321C261.9 157.077 259.224 158.169 255.755 158.597Z" fill="#3A3ADB"/>
</svg>
