<svg width="320" height="320" viewBox="0 0 320 320" fill="none" xmlns="http://www.w3.org/2000/svg">
<circle cx="39" cy="121" r="25" fill="#E3FBFC"/>
<circle cx="282" cy="222" r="25" fill="#E3FBFC"/>
<path d="M33.5246 109.796L19.4445 89.5683C18.9828 88.9051 18.5409 88.2147 18.3459 87.4305C17.5894 84.3877 18.4083 79.2616 22.7547 77.1273C27.5937 74.7511 31.592 76.9687 33.7041 79.1231C34.6049 80.0419 35.102 81.2554 35.4887 82.4826L42.5432 104.874C42.8692 105.908 43.1408 106.984 42.9734 108.055C42.7472 109.504 42.0236 111.259 40.2246 112.142C38.2499 113.113 36.3203 112.375 35.1046 111.532C34.456 111.083 33.9754 110.444 33.5246 109.796Z" fill="#3A3ADB"/>
<ellipse cx="44.1282" cy="119.816" rx="5.86957" ry="6.26087" transform="rotate(-26.1644 44.1282 119.816)" fill="#3A3ADB"/>
<path d="M272.26 202.954L278.189 179.032C278.384 178.247 278.612 177.46 279.073 176.796C280.862 174.222 285.257 171.458 289.727 173.32C294.703 175.392 295.672 179.861 295.444 182.869C295.347 184.152 294.762 185.326 294.094 186.426L281.907 206.491C281.344 207.418 280.714 208.331 279.798 208.911C278.559 209.696 276.763 210.309 274.912 209.539C272.881 208.693 272.164 206.756 271.996 205.286C271.907 204.502 272.071 203.719 272.26 202.954Z" fill="#3A3ADB"/>
<ellipse cx="271.715" cy="217.532" rx="5.86957" ry="6.26087" transform="rotate(22.5971 271.715 217.532)" fill="#3A3ADB"/>
<path d="M125.883 166.113V179.797H120.872C120.829 179.797 120.808 179.797 120.808 179.797C120.808 179.797 120.808 179.818 120.808 179.861V185H94.4051V179.861C94.4051 179.818 94.4051 179.797 94.4051 179.797C94.4051 179.797 94.3837 179.797 94.3408 179.797H61.8351V160.974C63.4197 159.389 64.9829 157.783 66.5247 156.156C68.1093 154.529 69.6725 152.923 71.2142 151.338C72.7988 149.711 74.3834 148.105 75.968 146.52C77.5526 144.893 79.1158 143.265 80.6576 141.638C82.2422 140.01 83.8268 138.404 85.4114 136.82H118.752C113.313 141.702 107.874 146.584 102.435 151.466C96.9961 156.306 91.5571 161.167 86.118 166.049C86.118 166.049 86.118 166.07 86.118 166.113C86.1609 166.113 86.1823 166.113 86.1823 166.113H94.2766C94.3194 166.113 94.3408 166.113 94.3408 166.113C94.3408 166.113 94.3408 166.092 94.3408 166.049C94.3408 164.807 94.3194 163.586 94.2766 162.387C94.2766 161.188 94.2766 159.989 94.2766 158.79L120.808 144.593C120.808 148.276 120.808 151.852 120.808 155.321C120.808 158.79 120.808 162.366 120.808 166.049C120.808 166.092 120.808 166.113 120.808 166.113C120.808 166.113 120.829 166.113 120.872 166.113H125.883ZM162.47 186.927C157.759 186.927 153.519 186.52 149.75 185.707C145.981 184.893 142.684 183.715 139.857 182.173C137.031 180.632 134.675 178.79 132.791 176.649C130.906 174.507 129.493 172.13 128.551 169.518C127.609 166.863 127.138 164.015 127.138 160.974C127.138 157.548 127.78 154.272 129.065 151.145C130.392 148.019 132.448 145.235 135.232 142.794C138.058 140.353 141.699 138.426 146.153 137.012C150.65 135.599 156.089 134.892 162.47 134.892C166.71 134.892 170.521 135.214 173.905 135.856C177.331 136.498 180.35 137.419 182.963 138.618C185.575 139.775 187.823 141.167 189.708 142.794C191.592 144.421 193.113 146.22 194.269 148.19C195.468 150.117 196.346 152.173 196.903 154.357C197.502 156.499 197.802 158.704 197.802 160.974C197.802 163.501 197.46 165.899 196.774 168.169C196.132 170.439 195.147 172.537 193.819 174.465C192.534 176.392 190.907 178.126 188.937 179.668C187.01 181.167 184.74 182.473 182.127 183.587C179.515 184.657 176.56 185.471 173.262 186.028C170.007 186.627 166.41 186.927 162.47 186.927ZM162.341 166.113C163.84 166.113 165.104 165.963 166.132 165.664C167.159 165.364 167.995 164.957 168.637 164.443C169.279 163.929 169.75 163.372 170.05 162.773C170.35 162.173 170.5 161.595 170.5 161.038C170.5 160.524 170.414 160.01 170.243 159.497C170.072 158.983 169.793 158.511 169.408 158.083C169.065 157.612 168.594 157.205 167.995 156.863C167.395 156.477 166.646 156.199 165.746 156.028C164.89 155.813 163.883 155.706 162.727 155.706C161.228 155.706 159.943 155.856 158.872 156.156C157.845 156.456 156.988 156.863 156.303 157.377C155.66 157.848 155.189 158.404 154.89 159.047C154.59 159.689 154.44 160.332 154.44 160.974C154.44 161.616 154.568 162.237 154.825 162.837C155.082 163.437 155.51 163.993 156.11 164.507C156.71 164.978 157.523 165.364 158.551 165.664C159.579 165.963 160.842 166.113 162.341 166.113ZM251.065 159.304C253.206 159.775 255.069 160.353 256.654 161.038C258.281 161.681 259.673 162.409 260.83 163.222C261.986 163.993 262.928 164.85 263.656 165.792C264.427 166.691 264.984 167.676 265.326 168.747C265.669 169.775 265.84 170.846 265.84 171.959C265.84 174.743 264.748 177.27 262.564 179.54C260.38 181.809 256.847 183.608 251.964 184.936C247.082 186.263 240.594 186.927 232.5 186.927C226.418 186.927 221.236 186.542 216.953 185.771C212.713 185 209.266 183.951 206.611 182.623C203.998 181.253 202.092 179.668 200.893 177.869C199.694 176.028 199.094 174.058 199.094 171.959C199.094 170.846 199.244 169.775 199.544 168.747C199.887 167.719 200.422 166.756 201.15 165.856C201.878 164.914 202.799 164.058 203.913 163.287C205.026 162.473 206.375 161.745 207.96 161.103C209.587 160.417 211.45 159.839 213.549 159.368V159.304C211.664 158.833 209.994 158.297 208.538 157.698C207.082 157.098 205.818 156.434 204.748 155.706C203.677 154.978 202.799 154.186 202.114 153.329C201.429 152.473 200.915 151.574 200.572 150.631C200.272 149.689 200.122 148.726 200.122 147.741C200.122 145.299 201.193 143.115 203.334 141.188C205.476 139.261 208.902 137.74 213.613 136.627C218.367 135.471 224.641 134.892 232.435 134.892C238.303 134.892 243.271 135.214 247.339 135.856C251.451 136.498 254.77 137.419 257.296 138.618C259.823 139.775 261.665 141.145 262.821 142.73C264.02 144.272 264.62 145.942 264.62 147.741C264.62 148.726 264.449 149.689 264.106 150.631C263.763 151.574 263.249 152.473 262.564 153.329C261.879 154.143 261.001 154.914 259.93 155.642C258.86 156.37 257.575 157.034 256.076 157.634C254.62 158.233 252.949 158.768 251.065 159.24V159.304ZM225.626 154.486C225.626 155.299 225.904 155.985 226.461 156.541C227.018 157.098 227.81 157.526 228.838 157.826C229.909 158.083 231.129 158.212 232.5 158.212C232.542 158.212 232.564 158.212 232.564 158.212C232.607 158.212 232.628 158.212 232.628 158.212C232.671 158.212 232.692 158.212 232.692 158.212C232.735 158.212 232.757 158.212 232.757 158.212C232.799 158.212 232.842 158.212 232.885 158.212C234.17 158.212 235.262 158.083 236.161 157.826C237.103 157.526 237.832 157.098 238.345 156.541C238.859 155.985 239.116 155.299 239.116 154.486C239.116 153.843 238.966 153.308 238.667 152.88C238.367 152.409 237.917 152.023 237.318 151.723C236.761 151.381 236.076 151.145 235.262 151.017C234.448 150.845 233.527 150.76 232.5 150.76C230.401 150.76 228.731 151.081 227.489 151.723C226.247 152.323 225.626 153.244 225.626 154.486ZM224.662 163.801C224.662 164.486 224.834 165.107 225.176 165.664C225.562 166.178 226.097 166.606 226.782 166.948C227.467 167.291 228.281 167.569 229.223 167.784C230.208 167.955 231.3 168.041 232.5 168.041C233.656 168.041 234.705 167.955 235.647 167.784C236.59 167.612 237.382 167.355 238.024 167.013C238.667 166.627 239.159 166.178 239.502 165.664C239.887 165.107 240.08 164.486 240.08 163.801C240.08 162.43 239.438 161.381 238.153 160.653C236.868 159.882 235.112 159.497 232.885 159.497C232.885 159.497 232.864 159.497 232.821 159.497C232.821 159.497 232.799 159.497 232.757 159.497C232.714 159.497 232.671 159.497 232.628 159.497C232.628 159.497 232.607 159.497 232.564 159.497C232.564 159.497 232.542 159.497 232.5 159.497C230.144 159.497 228.238 159.861 226.782 160.589C225.369 161.274 224.662 162.345 224.662 163.801Z" fill="#3A3ADB"/>
</svg>
