<svg width="320" height="320" viewBox="0 0 320 320" fill="none" xmlns="http://www.w3.org/2000/svg">
<circle cx="39" cy="121" r="25" fill="#E3FBFC"/>
<circle cx="282" cy="222" r="25" fill="#E3FBFC"/>
<path d="M33.5246 109.796L19.4445 89.5683C18.9828 88.9051 18.5409 88.2147 18.3459 87.4305C17.5894 84.3877 18.4083 79.2616 22.7547 77.1273C27.5937 74.7511 31.592 76.9687 33.7041 79.1231C34.6049 80.0419 35.102 81.2554 35.4887 82.4826L42.5432 104.874C42.8692 105.908 43.1408 106.984 42.9734 108.055C42.7472 109.504 42.0236 111.259 40.2246 112.142C38.2499 113.113 36.3203 112.375 35.1046 111.532C34.456 111.083 33.9754 110.444 33.5246 109.796Z" fill="#3A3ADB"/>
<ellipse cx="44.1283" cy="119.816" rx="5.86957" ry="6.26087" transform="rotate(-26.1644 44.1283 119.816)" fill="#3A3ADB"/>
<path d="M272.26 202.954L278.189 179.032C278.384 178.247 278.612 177.46 279.073 176.796C280.862 174.222 285.257 171.458 289.727 173.32C294.703 175.392 295.672 179.861 295.444 182.869C295.347 184.152 294.762 185.326 294.094 186.426L281.907 206.491C281.344 207.418 280.714 208.331 279.798 208.911C278.559 209.696 276.763 210.309 274.912 209.539C272.881 208.693 272.164 206.756 271.996 205.286C271.907 204.502 272.071 203.719 272.26 202.954Z" fill="#3A3ADB"/>
<ellipse cx="271.715" cy="217.532" rx="5.86957" ry="6.26087" transform="rotate(22.5971 271.715 217.532)" fill="#3A3ADB"/>
<path d="M125.883 166.113V179.797H120.872C120.829 179.797 120.808 179.797 120.808 179.797C120.808 179.797 120.808 179.818 120.808 179.861V185H94.4051V179.861C94.4051 179.818 94.4051 179.797 94.4051 179.797C94.4051 179.797 94.3837 179.797 94.3408 179.797H61.8351V160.974C63.4197 159.389 64.9829 157.783 66.5247 156.156C68.1093 154.529 69.6725 152.923 71.2142 151.338C72.7988 149.711 74.3834 148.105 75.968 146.52C77.5526 144.893 79.1158 143.265 80.6576 141.638C82.2422 140.01 83.8268 138.404 85.4114 136.82H118.752C113.313 141.702 107.874 146.584 102.435 151.466C96.9961 156.306 91.5571 161.167 86.118 166.049C86.118 166.049 86.118 166.07 86.118 166.113C86.1609 166.113 86.1823 166.113 86.1823 166.113H94.2766C94.3194 166.113 94.3408 166.113 94.3408 166.113C94.3408 166.113 94.3408 166.092 94.3408 166.049C94.3408 164.807 94.3194 163.586 94.2766 162.387C94.2766 161.188 94.2766 159.989 94.2766 158.79L120.808 144.593C120.808 148.276 120.808 151.852 120.808 155.321C120.808 158.79 120.808 162.366 120.808 166.049C120.808 166.092 120.808 166.113 120.808 166.113C120.808 166.113 120.829 166.113 120.872 166.113H125.883ZM162.47 186.927C157.759 186.927 153.519 186.52 149.75 185.707C145.981 184.893 142.684 183.715 139.857 182.173C137.031 180.632 134.675 178.79 132.791 176.649C130.906 174.507 129.493 172.13 128.551 169.518C127.609 166.863 127.138 164.015 127.138 160.974C127.138 157.548 127.78 154.272 129.065 151.145C130.392 148.019 132.448 145.235 135.232 142.794C138.058 140.353 141.699 138.426 146.153 137.012C150.65 135.599 156.089 134.892 162.47 134.892C166.71 134.892 170.521 135.214 173.905 135.856C177.331 136.498 180.35 137.419 182.963 138.618C185.575 139.775 187.823 141.167 189.708 142.794C191.592 144.421 193.113 146.22 194.269 148.19C195.468 150.117 196.346 152.173 196.903 154.357C197.502 156.499 197.802 158.704 197.802 160.974C197.802 163.501 197.46 165.899 196.774 168.169C196.132 170.439 195.147 172.537 193.819 174.465C192.534 176.392 190.907 178.126 188.937 179.668C187.01 181.167 184.74 182.473 182.127 183.587C179.515 184.657 176.56 185.471 173.262 186.028C170.007 186.627 166.41 186.927 162.47 186.927ZM162.341 166.113C163.84 166.113 165.104 165.963 166.132 165.664C167.159 165.364 167.995 164.957 168.637 164.443C169.279 163.929 169.75 163.372 170.05 162.773C170.35 162.173 170.5 161.595 170.5 161.038C170.5 160.524 170.414 160.01 170.243 159.497C170.072 158.983 169.793 158.511 169.408 158.083C169.065 157.612 168.594 157.205 167.995 156.863C167.395 156.477 166.646 156.199 165.746 156.028C164.89 155.813 163.883 155.706 162.727 155.706C161.228 155.706 159.943 155.856 158.872 156.156C157.845 156.456 156.988 156.863 156.303 157.377C155.66 157.848 155.189 158.404 154.89 159.047C154.59 159.689 154.44 160.332 154.44 160.974C154.44 161.616 154.568 162.237 154.825 162.837C155.082 163.437 155.51 163.993 156.11 164.507C156.71 164.978 157.523 165.364 158.551 165.664C159.579 165.963 160.842 166.113 162.341 166.113ZM263.335 166.113V179.797H258.324C258.281 179.797 258.26 179.797 258.26 179.797C258.26 179.797 258.26 179.818 258.26 179.861V185H231.857V179.861C231.857 179.818 231.857 179.797 231.857 179.797C231.857 179.797 231.836 179.797 231.793 179.797H199.287V160.974C200.872 159.389 202.435 157.783 203.977 156.156C205.561 154.529 207.125 152.923 208.666 151.338C210.251 149.711 211.836 148.105 213.42 146.52C215.005 144.893 216.568 143.265 218.11 141.638C219.694 140.01 221.279 138.404 222.863 136.82H256.204C250.765 141.702 245.326 146.584 239.887 151.466C234.448 156.306 229.009 161.167 223.57 166.049C223.57 166.049 223.57 166.07 223.57 166.113C223.613 166.113 223.634 166.113 223.634 166.113H231.729C231.771 166.113 231.793 166.113 231.793 166.113C231.793 166.113 231.793 166.092 231.793 166.049C231.793 164.807 231.771 163.586 231.729 162.387C231.729 161.188 231.729 159.989 231.729 158.79L258.26 144.593C258.26 148.276 258.26 151.852 258.26 155.321C258.26 158.79 258.26 162.366 258.26 166.049C258.26 166.092 258.26 166.113 258.26 166.113C258.26 166.113 258.281 166.113 258.324 166.113H263.335Z" fill="#3A3ADB"/>
</svg>
