<svg width="48" height="48" viewBox="0 0 48 48" fill="none" xmlns="http://www.w3.org/2000/svg">
<circle cx="24" cy="24" r="24" fill="#FEE500"/>
<path d="M24.0695 11.5835C16.6026 11.5835 10.5809 16.4008 10.5809 22.2491C10.5809 26.0451 13.086 29.3691 16.8435 31.2671L15.5717 36.0171C15.5477 36.0883 15.544 36.1647 15.5611 36.2379C15.5781 36.311 15.6151 36.378 15.6681 36.4313C15.7452 36.4994 15.8446 36.5371 15.9475 36.5373C16.0328 36.5305 16.1138 36.4967 16.1787 36.441L21.6512 32.7509C22.459 32.8624 23.2733 32.9203 24.0888 32.9243C31.5461 32.9243 37.5774 28.107 37.5774 22.2491C37.5774 16.3912 31.5268 11.5835 24.0695 11.5835Z" fill="#392020"/>
<path d="M15.3015 20.5623H13.8274C13.6447 20.5676 13.4642 20.5208 13.3071 20.4274C13.2373 20.3837 13.1774 20.326 13.1309 20.2581C13.0845 20.1901 13.0526 20.1132 13.0373 20.0324C13.0326 19.9811 13.0326 19.9296 13.0373 19.8783C13.0327 19.7824 13.0514 19.6867 13.0916 19.5994C13.1319 19.5122 13.1926 19.436 13.2686 19.3773C13.4365 19.2556 13.6393 19.1914 13.8466 19.1942H18.2882C18.4724 19.1877 18.6541 19.2382 18.8085 19.3387C18.8799 19.3805 18.9412 19.4376 18.9878 19.5059C19.0345 19.5743 19.0654 19.6521 19.0783 19.7338C19.083 19.7818 19.083 19.8302 19.0783 19.8783C19.0828 19.9756 19.0642 20.0726 19.0241 20.1614C18.9839 20.2502 18.9232 20.3281 18.8471 20.3889C18.6832 20.5104 18.4824 20.5717 18.2786 20.5623H16.8527V25.6302C16.8585 25.7382 16.8418 25.8461 16.8036 25.9473C16.7655 26.0484 16.7067 26.1406 16.6311 26.2179C16.5585 26.2918 16.4714 26.3497 16.3751 26.3878C16.2789 26.426 16.1757 26.4436 16.0723 26.4395C15.8913 26.4446 15.7142 26.3868 15.5713 26.2758C15.4352 26.1673 15.3428 26.0133 15.3111 25.8421C15.3016 25.7718 15.3016 25.7005 15.3111 25.6302L15.3015 20.5623Z" fill="#FEE500"/>
<path d="M19.5036 19.5715C19.546 19.4129 19.6455 19.2757 19.783 19.1861C19.9295 19.103 20.0965 19.063 20.2647 19.0705H20.6309C20.8094 19.0641 20.9862 19.1074 21.1415 19.1957C21.3061 19.3064 21.423 19.4749 21.4691 19.6678L23.396 25.1115C23.446 25.2535 23.4878 25.3983 23.5213 25.5451C23.5246 25.6061 23.5246 25.6671 23.5213 25.7281C23.5245 25.822 23.5073 25.9155 23.4706 26.002C23.434 26.0885 23.379 26.1661 23.3093 26.2291C23.2418 26.2983 23.1608 26.3528 23.0713 26.3893C22.9817 26.4258 22.8857 26.4434 22.789 26.441C22.6404 26.4558 22.4912 26.4202 22.3653 26.3398C22.2395 26.2594 22.1444 26.1389 22.0953 25.9979L21.6907 24.8128H19.1568L18.7521 25.9979C18.7042 26.1417 18.608 26.2645 18.4797 26.3453C18.3515 26.4261 18.1992 26.4599 18.0488 26.441C17.8858 26.4453 17.7263 26.3944 17.5959 26.2965C17.469 26.1955 17.3833 26.0517 17.3551 25.8919C17.3499 25.8374 17.3499 25.7826 17.3551 25.7281C17.3385 25.6325 17.3385 25.5348 17.3551 25.4391C17.3551 25.3331 17.4225 25.2174 17.461 25.1115L19.5036 19.5715ZM20.4671 20.8337L19.5518 23.7241H21.3727L20.4671 20.8337Z" fill="#FEE500"/>
<path d="M23.7419 19.8798C23.7321 19.6636 23.8083 19.4523 23.9539 19.2921C24.0279 19.2175 24.1167 19.1591 24.2146 19.121C24.3125 19.0828 24.4174 19.0655 24.5223 19.0704C24.7028 19.0683 24.879 19.1259 25.0233 19.2342C25.1572 19.3472 25.246 19.5044 25.2738 19.6774C25.2833 19.7445 25.2833 19.8127 25.2738 19.8798V24.9477H27.9234C28.107 24.9453 28.2876 24.9953 28.4437 25.0921C28.5138 25.1353 28.5741 25.1929 28.6206 25.261C28.667 25.329 28.6987 25.4061 28.7134 25.4871C28.7134 25.4871 28.7134 25.5835 28.7134 25.6317C28.718 25.7276 28.6994 25.8232 28.6591 25.9104C28.6189 25.9976 28.5582 26.0739 28.4822 26.1327C28.3142 26.2544 28.1115 26.3185 27.9041 26.3157H24.6476C24.4402 26.3291 24.234 26.2751 24.0599 26.1616C23.9041 26.0452 23.8003 25.8722 23.7708 25.6799C23.7638 25.574 23.7638 25.4677 23.7708 25.3619L23.7419 19.8798Z" fill="#FEE500"/>
<path d="M28.887 19.8791C28.8812 19.6635 28.9569 19.4537 29.0989 19.2914C29.2433 19.1602 29.4286 19.0827 29.6234 19.0722C29.8182 19.0616 30.0107 19.1186 30.1684 19.2335C30.3051 19.3456 30.3974 19.5027 30.4285 19.6767C30.4333 19.744 30.4333 19.8117 30.4285 19.8791V22.2396L32.8661 19.4262C32.96 19.3302 33.0598 19.2402 33.1648 19.1565C33.2637 19.0976 33.3772 19.0674 33.4924 19.0697C33.6608 19.0688 33.8254 19.1192 33.9645 19.2142C34.03 19.2584 34.0859 19.3153 34.129 19.3815C34.172 19.4477 34.2012 19.5219 34.215 19.5997C34.2189 19.6187 34.2189 19.6384 34.215 19.6575C34.2103 19.6798 34.2103 19.7027 34.215 19.7249C34.2146 19.8263 34.1881 19.9259 34.1379 20.014C34.0868 20.1073 34.0254 20.1944 33.9548 20.274L32.3555 22.0276L34.2824 25.0144V25.1107C34.3825 25.2488 34.4605 25.4016 34.5136 25.5636V25.6117C34.5248 25.7233 34.5087 25.836 34.4667 25.9401C34.4248 26.0441 34.3582 26.1364 34.2728 26.2091C34.112 26.3305 33.9154 26.395 33.714 26.3922C33.5801 26.3977 33.4472 26.3677 33.3286 26.3054C33.2002 26.2193 33.0945 26.1037 33.0203 25.9682L31.2282 23.0778L30.3707 23.9739V25.5828C30.3765 25.7984 30.3008 26.0082 30.1588 26.1705C30.0826 26.2449 29.992 26.303 29.8926 26.3411C29.7932 26.3792 29.687 26.3966 29.5807 26.3922C29.4029 26.3959 29.2293 26.338 29.0893 26.2283C28.9532 26.1199 28.8608 25.966 28.8292 25.7948C28.8196 25.7245 28.8196 25.6531 28.8292 25.5828L28.887 19.8791Z" fill="#FEE500"/>
</svg>
