<svg width="28" height="28" viewBox="0 0 28 28" fill="none" xmlns="http://www.w3.org/2000/svg">
<path d="M24.5 15.75V22.75C24.5 22.982 24.4078 23.2046 24.2437 23.3687C24.0796 23.5328 23.8571 23.625 23.625 23.625H4.375C4.14294 23.625 3.92038 23.5328 3.75628 23.3687C3.59219 23.2046 3.5 22.982 3.5 22.75V15.75C3.5 15.5179 3.59219 15.2953 3.75628 15.1312C3.92038 14.9671 4.14294 14.875 4.375 14.875C4.60706 14.875 4.82962 14.9671 4.99372 15.1312C5.15781 15.2953 5.25 15.5179 5.25 15.75V21.875H22.75V15.75C22.75 15.5179 22.8422 15.2953 23.0063 15.1312C23.1704 14.9671 23.3929 14.875 23.625 14.875C23.8571 14.875 24.0796 14.9671 24.2437 15.1312C24.4078 15.2953 24.5 15.5179 24.5 15.75ZM10.2441 8.49402L13.125 5.61199V15.75C13.125 15.982 13.2172 16.2046 13.3813 16.3687C13.5454 16.5328 13.7679 16.625 14 16.625C14.2321 16.625 14.4546 16.5328 14.6187 16.3687C14.7828 16.2046 14.875 15.982 14.875 15.75V5.61199L17.7559 8.49402C17.9201 8.6582 18.1428 8.75044 18.375 8.75044C18.6072 8.75044 18.8299 8.6582 18.9941 8.49402C19.1582 8.32983 19.2505 8.10715 19.2505 7.87496C19.2505 7.64276 19.1582 7.42008 18.9941 7.25589L14.6191 2.88089C14.5378 2.79954 14.4413 2.735 14.3351 2.69097C14.2288 2.64693 14.115 2.62427 14 2.62427C13.885 2.62427 13.7712 2.64693 13.6649 2.69097C13.5587 2.735 13.4622 2.79954 13.3809 2.88089L9.00594 7.25589C8.84175 7.42008 8.74951 7.64276 8.74951 7.87496C8.74951 8.10715 8.84175 8.32983 9.00594 8.49402C9.17012 8.6582 9.39281 8.75044 9.625 8.75044C9.85719 8.75044 10.0799 8.6582 10.2441 8.49402Z" fill="#3A3ADB"/>
</svg>
