<svg width="48" height="48" viewBox="0 0 48 48" fill="none" xmlns="http://www.w3.org/2000/svg">
<ellipse cx="14.3345" cy="26.3575" rx="5.33449" ry="5.3243" fill="#3A3ADB" fill-opacity="0.5"/>
<ellipse cx="29.0968" cy="12.3135" rx="3.32034" ry="3.31399" fill="#72EDF2"/>
<path d="M28.1974 12.6217C28.6781 10.8317 30.522 9.76904 32.3156 10.2487C34.1089 10.7286 35.1731 12.569 34.6925 14.359C34.212 16.149 32.3687 17.2113 30.5753 16.7321C30.2958 16.6573 30.0332 16.5493 29.7921 16.4137C27.9834 16.4855 26.3663 17.6841 25.8839 19.4801C25.8623 19.5607 25.8418 19.6416 25.8253 19.7223C26.0036 20.5889 25.9893 21.5089 25.7443 22.4215C25.6261 22.8618 25.4586 23.2758 25.2531 23.6618C25.5475 24.5789 26.5712 25.1719 27.6886 25.0182C28.2165 24.9455 28.6784 24.7164 29.0236 24.3952L30.2863 25.3493L25.9679 31.0397L24.2521 29.7428C24.7723 29.1541 25.046 28.3622 24.9318 27.5348C24.8149 26.6896 24.3207 25.9868 23.6378 25.5631C22.2358 26.6344 20.3698 27.0682 18.5324 26.5768C15.3913 25.7367 13.527 22.5147 14.3683 19.3796C15.21 16.2443 18.439 14.3826 21.5802 15.2223C22.1046 15.3626 22.5937 15.5702 23.0402 15.8317C24.4398 16.4459 26.0832 16.2091 27.1515 15.1042C27.7625 14.4721 28.0828 13.6615 28.1212 12.8268L28.1535 12.8083C28.1664 12.7462 28.1808 12.6838 28.1974 12.6217Z" fill="url(#paint0_linear_1142_18349)"/>
<ellipse cx="14.3345" cy="26.3575" rx="5.33449" ry="5.3243" fill="#3A3ADB" fill-opacity="0.5"/>
<path d="M31.4274 23.6702C35.5228 23.6703 38.8561 26.961 38.9928 31.0725H39.0006V38.425C39.0006 38.7417 38.7431 38.9983 38.4264 38.9983H31.4987C31.4749 38.9985 31.4511 39.0002 31.4274 39.0002C31.4037 39.0002 31.3797 38.9985 31.3561 38.9983H31.1696V38.9924C27.1066 38.8549 23.8543 35.481 23.8541 31.3352C23.8542 27.102 27.245 23.6702 31.4274 23.6702Z" fill="url(#paint1_linear_1142_18349)"/>
<defs>
<linearGradient id="paint0_linear_1142_18349" x1="28.1355" y1="26.7876" x2="28.1355" y2="12.3999" gradientUnits="userSpaceOnUse">
<stop stop-color="#72EDF2"/>
<stop offset="1" stop-color="#3A3ADB"/>
</linearGradient>
<linearGradient id="paint1_linear_1142_18349" x1="38.988" y1="38.493" x2="26.5333" y2="25.506" gradientUnits="userSpaceOnUse">
<stop offset="0.0625" stop-color="#3A3ADB"/>
<stop offset="1" stop-color="#72EDF2"/>
</linearGradient>
</defs>
</svg>
