<svg width="26" height="26" viewBox="0 0 26 26" fill="none" xmlns="http://www.w3.org/2000/svg">
<ellipse cx="4.6232" cy="15.0445" rx="4.6232" ry="4.61435" fill="#3A3ADB" fill-opacity="0.5"/>
<ellipse cx="17.4171" cy="2.8721" rx="2.87761" ry="2.8721" fill="#72EDF2"/>
<path d="M16.6374 3.1403C17.0539 1.58892 18.6523 0.668033 20.2067 1.08366C21.7609 1.49957 22.6837 3.09482 22.2673 4.64616C21.8505 6.19737 20.2522 7.1175 18.6979 6.70182C18.4603 6.63826 18.2394 6.54364 18.0339 6.42936C16.4606 6.48577 15.0509 7.52554 14.6315 9.08659C14.6129 9.15602 14.5959 9.22602 14.5817 9.29557C14.7359 10.0461 14.7245 10.8431 14.5124 11.6335C14.4097 12.0158 14.2642 12.3755 14.0856 12.7106C14.3404 13.506 15.2281 14.0206 16.1969 13.8874C16.6547 13.8243 17.055 13.625 17.3542 13.3464L18.4479 14.1735L14.7057 19.1051L13.2184 17.9792C13.6697 17.4688 13.9054 16.7825 13.8063 16.0651C13.705 15.3324 13.2771 14.7242 12.6852 14.3571C11.4701 15.2846 9.85323 15.6607 8.2614 15.235C5.53919 14.5068 3.92369 11.7139 4.653 8.99674C5.38252 6.27972 8.18072 4.66653 10.903 5.3942C11.3593 5.51624 11.7842 5.69844 12.1725 5.92643C13.3845 6.45608 14.8065 6.24895 15.7311 5.29264C16.2604 4.74505 16.5375 4.04307 16.571 3.31998L16.5993 3.30338C16.6106 3.24919 16.6229 3.19444 16.6374 3.1403Z" fill="url(#paint0_linear_1584_18253)"/>
<ellipse cx="4.6232" cy="15.0445" rx="4.6232" ry="4.61435" fill="#3A3ADB" fill-opacity="0.2"/>
<path d="M19.4371 12.7146C22.9866 12.7148 25.8765 15.567 25.9947 19.1306H25.9996V25.5281C25.9995 25.7887 25.7885 25.9997 25.5279 25.9998H19.4742C19.4618 25.9998 19.4494 26.0007 19.4371 26.0007C19.4248 26.0007 19.4122 25.9998 19.4 25.9998H19.2134V25.9949C15.6921 25.8757 12.8736 22.9502 12.8736 19.3572C12.8737 15.6886 15.8124 12.7146 19.4371 12.7146Z" fill="url(#paint1_linear_1584_18253)"/>
<defs>
<linearGradient id="paint0_linear_1584_18253" x1="16.5845" y1="15.4194" x2="16.5845" y2="2.94831" gradientUnits="userSpaceOnUse">
<stop stop-color="#72EDF2"/>
<stop offset="1" stop-color="#3A3ADB"/>
</linearGradient>
<linearGradient id="paint1_linear_1584_18253" x1="25.9885" y1="25.5609" x2="15.1945" y2="14.3064" gradientUnits="userSpaceOnUse">
<stop offset="0.0625" stop-color="#3A3ADB"/>
<stop offset="1" stop-color="#72EDF2"/>
</linearGradient>
</defs>
</svg>
