<svg width="74" height="74" viewBox="0 0 74 74" fill="none" xmlns="http://www.w3.org/2000/svg">
<ellipse cx="13.1584" cy="42.8192" rx="13.1584" ry="13.1331" fill="#3A3ADB" fill-opacity="0.5"/>
<ellipse cx="49.5719" cy="8.17444" rx="8.19015" ry="8.17444" fill="#72EDF2"/>
<path d="M47.3526 8.93623C48.5382 4.5206 53.0866 1.9005 57.5108 3.08369C61.9348 4.26698 64.5603 8.80576 63.375 13.2214C62.1895 17.6369 57.6419 20.2579 53.2178 19.0749C52.536 18.8926 51.8966 18.6295 51.3077 18.3005C46.8374 18.4687 42.8361 21.4255 41.6446 25.863C41.5922 26.058 41.546 26.2536 41.5059 26.4489C41.9463 28.5871 41.9083 30.857 41.3038 33.1091C41.0106 34.2009 40.5995 35.2296 40.0889 36.1862C40.8171 38.4456 43.3443 39.904 46.0987 39.5251C47.4023 39.3456 48.5437 38.7817 49.3955 37.988L52.5079 40.3415L41.8545 54.3747L37.628 51.1784C38.9125 49.7258 39.5799 47.7673 39.2979 45.7253C39.0098 43.641 37.7928 41.9084 36.1094 40.863C32.6509 43.505 28.0456 44.573 23.5137 43.361C15.7653 41.2886 11.1672 33.3388 13.2432 25.6052C15.3196 17.8715 23.2846 13.2819 31.0332 15.3542C32.3622 15.7096 33.5988 16.2374 34.7247 16.9079C38.156 18.3703 42.1616 17.7643 44.7725 15.0642C46.2791 13.5058 47.0705 11.5088 47.1661 9.45087L47.2432 9.40498C47.2756 9.24893 47.3107 9.09212 47.3526 8.93623Z" fill="url(#paint0_linear_665_5700)"/>
<ellipse cx="13.1584" cy="42.8192" rx="13.1584" ry="13.1331" fill="#3A3ADB" fill-opacity="0.2"/>
<path d="M55.3198 36.187C65.4232 36.187 73.6519 44.3055 73.9878 54.4487H74.0005V72.4819C74.0003 73.3203 73.3203 73.9995 72.4819 73.9995H55.3892C55.3661 73.9996 55.3429 74.0005 55.3198 74.0005C55.2967 74.0005 55.2736 73.9996 55.2505 73.9995H54.6841V73.9868C44.662 73.6475 36.6402 65.3196 36.6401 55.0933C36.6403 44.6516 45.0034 36.1871 55.3198 36.187Z" fill="url(#paint1_linear_665_5700)"/>
<defs>
<linearGradient id="paint0_linear_665_5700" x1="47.2012" y1="43.8848" x2="47.2012" y2="8.39053" gradientUnits="userSpaceOnUse">
<stop stop-color="#72EDF2"/>
<stop offset="1" stop-color="#3A3ADB"/>
</linearGradient>
<linearGradient id="paint1_linear_665_5700" x1="73.9695" y1="72.7493" x2="43.2484" y2="40.7155" gradientUnits="userSpaceOnUse">
<stop offset="0.0625" stop-color="#3A3ADB"/>
<stop offset="1" stop-color="#72EDF2"/>
</linearGradient>
</defs>
</svg>
