<svg width="45" height="18" viewBox="0 0 45 18" fill="none" xmlns="http://www.w3.org/2000/svg">
<path d="M6 1.47689e-08C8 -0.000204218 9 2.11782 9 3.70605V9.5293C9 11.6469 7.5 12.7061 6 12.7061H3V18H0V1.47689e-08C0 1.47689e-08 4 0.000204277 6 1.47689e-08ZM3 2.64746V9.5293H5.5C5.99997 9.5293 6.48967 9.17353 6.5 8.4707V3.70605C6.5 3.17664 6 2.64746 5.5 2.64746H3Z" fill="white"/>
<path d="M21 18H18L17.5 14.5H14.5L14 18H11L14 0H18L21 18ZM14.5 12H17.5L16 3.5L14.5 12Z" fill="white"/>
<path d="M28.0938 18C27.1108 18 26.2887 17.8867 25.6273 17.6602C24.975 17.427 24.4567 17.0905 24.0724 16.6507C23.6971 16.2043 23.429 15.6646 23.2681 15.0316C23.1072 14.392 23.0268 13.6657 23.0268 12.8529V11.2837H26.4316V13.0527C26.4316 13.9989 26.5389 14.6785 26.7534 15.0916C26.9678 15.5047 27.3923 15.7113 28.0268 15.7113C28.4558 15.7113 28.7775 15.638 28.992 15.4914C29.2154 15.3381 29.3628 15.0983 29.4343 14.7718C29.5147 14.4386 29.555 14.0056 29.555 13.4725C29.555 12.8129 29.3673 12.2099 28.992 11.6635C28.6256 11.1172 28.067 10.5508 27.3164 9.96446L25.5737 8.62521C25.0912 8.25208 24.6533 7.85564 24.2601 7.43587C23.8758 7.0161 23.5675 6.54969 23.3351 6.03665C23.1117 5.51693 23 4.93726 23 4.29761C23 3.37146 23.1519 2.58856 23.4558 1.94892C23.7596 1.30927 24.2735 0.826208 24.9973 0.499722C25.7212 0.166574 26.7131 0 27.9732 0C28.9205 0 29.6979 0.109939 30.3056 0.329817C30.9223 0.543032 31.4004 0.859522 31.7399 1.27929C32.0885 1.69239 32.3342 2.19878 32.4772 2.79845C32.6202 3.39145 32.6917 4.07107 32.6917 4.83731V5.92671H29.3807V4.66741C29.3807 4.13437 29.3405 3.69128 29.2601 3.33815C29.1886 2.98501 29.05 2.72182 28.8445 2.54858C28.639 2.36868 28.3396 2.27873 27.9464 2.27873C27.571 2.27873 27.2672 2.34203 27.0349 2.46863C26.8025 2.58856 26.6327 2.77846 26.5255 3.03831C26.4272 3.2915 26.378 3.62132 26.378 4.02776C26.378 4.39423 26.4406 4.71072 26.5657 4.97723C26.6908 5.24375 26.8829 5.50028 27.1421 5.74681C27.4013 5.99334 27.723 6.26985 28.1072 6.57635L30.0509 8.14547C30.9803 8.89173 31.7042 9.66796 32.2225 10.4742C32.7408 11.2804 33 12.1799 33 13.1727C33 14.2254 32.8481 15.1116 32.5442 15.8312C32.2404 16.5441 31.731 17.0838 31.0161 17.4503C30.3012 17.8168 29.3271 18 28.0938 18Z" fill="white"/>
<path d="M40.0938 18C39.1108 18 38.2887 17.8867 37.6273 17.6602C36.975 17.427 36.4567 17.0905 36.0724 16.6507C35.6971 16.2043 35.429 15.6646 35.2681 15.0316C35.1072 14.392 35.0268 13.6657 35.0268 12.8529V11.2837H38.4316V13.0527C38.4316 13.9989 38.5389 14.6785 38.7534 15.0916C38.9678 15.5047 39.3923 15.7113 40.0268 15.7113C40.4558 15.7113 40.7775 15.638 40.992 15.4914C41.2154 15.3381 41.3628 15.0983 41.4343 14.7718C41.5147 14.4386 41.555 14.0056 41.555 13.4725C41.555 12.8129 41.3673 12.2099 40.992 11.6635C40.6256 11.1172 40.067 10.5508 39.3164 9.96446L37.5737 8.62521C37.0912 8.25208 36.6533 7.85564 36.2601 7.43587C35.8758 7.0161 35.5675 6.54969 35.3351 6.03665C35.1117 5.51693 35 4.93726 35 4.29761C35 3.37146 35.1519 2.58856 35.4558 1.94892C35.7596 1.30927 36.2735 0.826208 36.9973 0.499722C37.7212 0.166574 38.7131 0 39.9732 0C40.9205 0 41.6979 0.109939 42.3056 0.329817C42.9223 0.543032 43.4004 0.859522 43.7399 1.27929C44.0885 1.69239 44.3342 2.19878 44.4772 2.79845C44.6202 3.39145 44.6917 4.07107 44.6917 4.83731V5.92671H41.3807V4.66741C41.3807 4.13437 41.3405 3.69128 41.2601 3.33815C41.1886 2.98501 41.05 2.72182 40.8445 2.54858C40.639 2.36868 40.3396 2.27873 39.9464 2.27873C39.571 2.27873 39.2672 2.34203 39.0349 2.46863C38.8025 2.58856 38.6327 2.77846 38.5255 3.03831C38.4272 3.2915 38.378 3.62132 38.378 4.02776C38.378 4.39423 38.4406 4.71072 38.5657 4.97723C38.6908 5.24375 38.8829 5.50028 39.1421 5.74681C39.4013 5.99334 39.723 6.26985 40.1072 6.57635L42.0509 8.14547C42.9803 8.89173 43.7042 9.66796 44.2225 10.4742C44.7408 11.2804 45 12.1799 45 13.1727C45 14.2254 44.8481 15.1116 44.5442 15.8312C44.2404 16.5441 43.731 17.0838 43.0161 17.4503C42.3012 17.8168 41.3271 18 40.0938 18Z" fill="white"/>
</svg>
